<svg version="1" xmlns="http://www.w3.org/2000/svg" width="933.333" height="933.333" viewBox="0 0 700.000000 700.000000"><path d="M313.5 106.5c-31 7.9-55.3 30.9-63.9 60.6-4.2 14.4-5 29.2-2.2 42.9 5.2 26.3 23.3 49.9 47.1 61.7 7 3.5 16.6 7 21.5 7.8 1.9.3 4.3.8 5.4 1.1 2.5.8 20.1.8 25.6-.1 12.4-1.8 27.5-7.6 37.7-14.6 11.1-7.6 22.7-20.8 28.8-32.9 3.1-6.3 7.2-17.8 8.1-23 .2-1.4.6-4 1-5.8.9-5.4.6-19.7-.6-26.4-6-34.1-31.4-62-64.7-70.9-12-3.3-32-3.4-43.8-.4zM144.3 153.1c-27.9 3.6-49.8 27.5-50.7 55.4-1.1 34.4 26.8 62.2 60.5 60.2 4.6-.2 9.4-.7 10.7-1 17.3-4.4 32.6-16.7 39.3-31.7 8.6-18.9 7.2-40.4-3.7-56.9-12.3-18.6-34.4-28.8-56.1-26zM605.7 273.4c-2.1.8-4.6 2.1-5.6 3-1 .9-2.2 1.6-2.8 1.6-.6 0-1.3.3-1.5.8-.2.6-92.7 65.8-97.5 68.7-.9.5-2.4 1.6-3.2 2.2-.9.7-5.6 4.1-10.6 7.6l-9 6.3-.3 51.6-.2 51.5 31.2 25.8c17.2 14.2 33 27.2 35.2 28.9 2.1 1.7 4.3 3.6 5 4.1.6.6 3.6 3 6.6 5.5 3 2.5 5.7 4.7 6 5 .3.3 4.6 3.9 9.5 8 5 4.1 9.2 7.7 9.5 8 .3.3 2.1 1.7 4.2 3.2 2 1.5 4.2 3.4 5 4.1 2.8 2.8 15.4 12.5 17.7 13.7 3.4 1.7 11.2 1.5 14.9-.4 3.9-2 7.7-5.8 9.9-9.9 1.7-3 1.8-11.4 1.8-138.7l-.1-135.5-2.3-4.4c-5.1-9.8-14.3-14-23.4-10.7zM125 308.6c-11.4 3.1-20.7 10.9-26.3 22.3l-3.2 6.6-.2 93.5c-.3 99.8-.4 97 4.5 106.6 2.7 5.3 9.7 12.5 15.2 15.6 10.5 6.1 3.3 5.8 143.7 5.8H387l5.8-2.2c12.7-4.7 20.8-12.9 26-26.2 1.4-3.6 1.6-14.4 1.7-95.6.2-99.2.4-97-5.2-107.3-3-5.4-11.6-13.8-16.6-16.2-10-4.6-7.2-4.5-141.7-4.4-107.7 0-127.3.3-132 1.5z"/></svg>