<?xml version="1.0" encoding="UTF-8" standalone="no"?>
<svg
   xmlns:dc="http://purl.org/dc/elements/1.1/"
   xmlns:cc="http://creativecommons.org/ns#"
   xmlns:rdf="http://www.w3.org/1999/02/22-rdf-syntax-ns#"
   xmlns:svg="http://www.w3.org/2000/svg"
   xmlns="http://www.w3.org/2000/svg"
   xmlns:sodipodi="http://sodipodi.sourceforge.net/DTD/sodipodi-0.dtd"
   xmlns:inkscape="http://www.inkscape.org/namespaces/inkscape"
   width="472"
   height="229"
   viewBox="0 0 472 229"
   version="1.1"
   id="svg5161"
   sodipodi:docname="OAuthIcons.svg"
   style="fill:none"
   inkscape:version="0.92.4 (5da689c313, 2019-01-14)">
  <metadata
     id="metadata5167">
    <rdf:RDF>
      <cc:Work
         rdf:about="">
        <dc:format>image/svg+xml</dc:format>
        <dc:type
           rdf:resource="http://purl.org/dc/dcmitype/StillImage" />
        <dc:title></dc:title>
      </cc:Work>
    </rdf:RDF>
  </metadata>
  <defs
     id="defs5165" />
  <sodipodi:namedview
     pagecolor="#ffffff"
     bordercolor="#666666"
     borderopacity="1"
     objecttolerance="10"
     gridtolerance="10"
     guidetolerance="10"
     inkscape:pageopacity="0"
     inkscape:pageshadow="2"
     inkscape:window-width="1920"
     inkscape:window-height="1027"
     id="namedview5163"
     showgrid="false"
     inkscape:zoom="18.983051"
     inkscape:cx="445.00812"
     inkscape:cy="168.59763"
     inkscape:window-x="-8"
     inkscape:window-y="-8"
     inkscape:window-maximized="1"
     inkscape:current-layer="svg5161" />
  <rect
     x="80"
     y="0"
     width="32"
     height="32"
     rx="2"
     id="rect4789"
     style="fill:#7191b4" />
  <path
     d="m 95.7816,22.5121 h 1.2155 c 0,0 0.3671,-0.0403 0.5545,-0.2424 0.1726,-0.1855 0.167,-0.5338 0.167,-0.5338 0,0 -0.0237,-1.6309 0.7332,-1.8711 0.7462,-0.2366 1.7042,1.5762 2.7202,2.2733 0.768,0.5275 1.351,0.4118 1.351,0.4118 l 2.716,-0.0378 c 0,0 1.42,-0.0875 0.747,-1.2044 -0.055,-0.0914 -0.393,-0.8262 -2.019,-2.3362 -1.703,-1.5804 -1.475,-1.3247 0.576,-4.0584 1.249,-1.6649 1.749,-2.6813 1.593,-3.1166 -0.149,-0.4147 -1.068,-0.3051 -1.068,-0.3051 l -3.057,0.0191 c 0,0 -0.227,-0.0309 -0.395,0.0696 -0.164,0.0985 -0.27,0.3282 -0.27,0.3282 0,0 -0.484,1.2883 -1.129,2.3839 -1.3619,2.3119 -1.9062,2.4339 -2.1287,2.2904 -0.5176,-0.3346 -0.3884,-1.3441 -0.3884,-2.0613 0,-2.2404 0.3398,-3.1745 -0.6617,-3.4163 -0.3324,-0.0804 -0.5769,-0.1334 -1.4269,-0.1419 -1.0909,-0.0113 -2.0143,0.0033 -2.5372,0.2595 -0.3478,0.1703 -0.6161,0.5499 -0.4527,0.5717 0.2021,0.027 0.6598,0.1234 0.9024,0.4538 0.3133,0.4262 0.3023,1.3835 0.3023,1.3835 0,0 0.18,2.6374 -0.4204,2.9651 -0.4122,0.2247 -0.9775,-0.2341 -2.1913,-2.3315 -0.6219,-1.0744 -1.0915,-2.262 -1.0915,-2.262 0,0 -0.0905,-0.2219 -0.252,-0.3406 -0.196,-0.1438 -0.4698,-0.1897 -0.4698,-0.1897 l -2.9054,0.0191 c 0,0 -0.4362,0.0121 -0.5963,0.2018 -0.1425,0.1686 -0.0113,0.5176 -0.0113,0.5176 0,0 2.2746,5.3216 4.8501,8.0034 2.3616,2.4588 5.0434,2.2973 5.0434,2.2973 z"
     id="path4791"
     inkscape:connector-curvature="0"
     style="clip-rule:evenodd;fill:#ffffff;fill-rule:evenodd" />
  <rect
     x="80"
     y="44"
     width="32"
     height="32"
     rx="2"
     id="rect4793"
     style="fill:#4d76a1" />
  <path
     d="m 95.7816,66.5121 h 1.2155 c 0,0 0.3671,-0.0403 0.5545,-0.2424 0.1726,-0.1855 0.167,-0.5338 0.167,-0.5338 0,0 -0.0237,-1.6309 0.7332,-1.8711 0.7462,-0.2366 1.7042,1.5762 2.7202,2.2733 0.768,0.5275 1.351,0.4118 1.351,0.4118 l 2.716,-0.0378 c 0,0 1.42,-0.0875 0.747,-1.2044 -0.055,-0.0914 -0.393,-0.8262 -2.019,-2.3362 -1.703,-1.5804 -1.475,-1.3247 0.576,-4.0584 1.249,-1.6649 1.749,-2.6813 1.593,-3.1166 -0.149,-0.4147 -1.068,-0.3051 -1.068,-0.3051 l -3.057,0.0191 c 0,0 -0.227,-0.0309 -0.395,0.0696 -0.164,0.0985 -0.27,0.3282 -0.27,0.3282 0,0 -0.484,1.2883 -1.129,2.3839 -1.3619,2.3119 -1.9062,2.4339 -2.1287,2.2904 -0.5176,-0.3346 -0.3884,-1.3441 -0.3884,-2.0613 0,-2.2404 0.3398,-3.1745 -0.6617,-3.4163 -0.3324,-0.0804 -0.5769,-0.1334 -1.4269,-0.1419 -1.0909,-0.0113 -2.0143,0.0033 -2.5372,0.2595 -0.3478,0.1703 -0.6161,0.5499 -0.4527,0.5717 0.2021,0.027 0.6598,0.1234 0.9024,0.4538 0.3133,0.4262 0.3023,1.3835 0.3023,1.3835 0,0 0.18,2.6374 -0.4204,2.9651 -0.4122,0.2247 -0.9775,-0.2341 -2.1913,-2.3315 -0.6219,-1.0744 -1.0915,-2.262 -1.0915,-2.262 0,0 -0.0905,-0.2219 -0.252,-0.3406 -0.196,-0.1438 -0.4698,-0.1897 -0.4698,-0.1897 l -2.9054,0.0191 c 0,0 -0.4362,0.0121 -0.5963,0.2018 -0.1425,0.1686 -0.0113,0.5176 -0.0113,0.5176 0,0 2.2746,5.3216 4.8501,8.0034 2.3616,2.4588 5.0434,2.2973 5.0434,2.2973 z"
     id="path4795"
     inkscape:connector-curvature="0"
     style="clip-rule:evenodd;fill:#ffffff;fill-rule:evenodd" />
  <rect
     x="40"
     y="0"
     width="32"
     height="32"
     rx="2"
     id="rect4797"
     style="fill:#627aad" />
  <path
     d="m 59.8412,16.3599 h -2.4783 v 9.0794 H 53.6081 V 16.3599 H 51.8223 V 13.169 h 1.7858 v -2.0648 c 0,-1.47659 0.7014,-3.78877 3.7883,-3.78877 l 2.7813,0.01164 v 3.09723 h -2.018 c -0.3311,0 -0.7965,0.1654 -0.7965,0.8698 v 1.8779 h 2.8061 z"
     id="path4799"
     inkscape:connector-curvature="0"
     style="fill:#ffffff" />
  <rect
     x="40"
     y="44"
     width="32"
     height="32"
     rx="2"
     id="rect4801"
     style="fill:#3b5998" />
  <path
     d="m 59.8412,60.3599 h -2.4783 v 9.0794 H 53.6081 V 60.3599 H 51.8223 V 57.169 h 1.7858 v -2.0648 c 0,-1.4766 0.7014,-3.7888 3.7883,-3.7888 l 2.7813,0.0117 v 3.0972 h -2.018 c -0.3311,0 -0.7965,0.1654 -0.7965,0.8698 v 1.8779 h 2.8061 z"
     id="path4803"
     inkscape:connector-curvature="0"
     style="fill:#ffffff" />
  <rect
     x="120"
     y="0"
     width="32"
     height="32"
     rx="2"
     id="rect4805"
     style="fill:#e37167" />
  <path
     d="m 131.16,18.2172 -0.605,2.2594 -2.213,0.0468 c -0.661,-1.2262 -1.036,-2.6291 -1.036,-4.1199 0,-1.4417 0.351,-2.8012 0.972,-3.9982 h 0.001 l 1.969,0.361 0.863,1.9576 c -0.18,0.5264 -0.279,1.0915 -0.279,1.6796 0,0.6381 0.116,1.2496 0.328,1.8137 z"
     id="path4807"
     inkscape:connector-curvature="0"
     style="fill:#ffffff" />
  <path
     d="m 144.542,14.7793 c 0.1,0.5259 0.152,1.069 0.152,1.6241 0,0.6224 -0.066,1.2296 -0.19,1.8152 -0.423,1.9929 -1.529,3.7331 -3.061,4.9645 l -0.001,-4e-4 -2.48,-0.1266 -0.351,-2.1916 c 1.016,-0.5962 1.811,-1.5291 2.229,-2.6459 h -4.649 v -3.4393 h 4.717 z"
     id="path4809"
     inkscape:connector-curvature="0"
     style="fill:#ffffff" />
  <path
     d="m 141.442,23.183 0.001,5e-4 c -1.49,1.1975 -3.383,1.914 -5.443,1.914 -3.311,0 -6.189,-1.8505 -7.657,-4.5737 l 2.817,-2.3063 c 0.734,1.9595 2.624,3.3543 4.84,3.3543 0.953,0 1.845,-0.2575 2.611,-0.707 z"
     id="path4811"
     inkscape:connector-curvature="0"
     style="fill:#ffffff" />
  <path
     d="m 141.549,9.71119 -2.816,2.30571 c -0.792,-0.4953 -1.729,-0.7814 -2.733,-0.7814 -2.266,0 -4.191,1.4588 -4.889,3.4885 l -2.832,-2.3187 v 0 c 1.446,-2.78964 4.361,-4.69558 7.721,-4.69558 2.11,0 4.044,0.7514 5.549,2.00147 z"
     id="path4813"
     inkscape:connector-curvature="0"
     style="fill:#ffffff" />
  <rect
     x="120"
     y="44"
     width="32"
     height="32"
     rx="2"
     id="rect4815"
     style="fill:#dc4e41" />
  <path
     d="m 131.16,62.2172 -0.605,2.2594 -2.213,0.0468 c -0.661,-1.2262 -1.036,-2.6291 -1.036,-4.1199 0,-1.4417 0.351,-2.8012 0.972,-3.9982 h 0.001 l 1.969,0.361 0.863,1.9576 c -0.18,0.5264 -0.279,1.0915 -0.279,1.6796 0,0.6381 0.116,1.2496 0.328,1.8137 z"
     id="path4817"
     inkscape:connector-curvature="0"
     style="fill:#ffffff" />
  <path
     d="m 144.542,58.7793 c 0.1,0.5259 0.152,1.069 0.152,1.6241 0,0.6224 -0.066,1.2296 -0.19,1.8152 -0.423,1.9929 -1.529,3.7331 -3.061,4.9645 l -0.001,-4e-4 -2.48,-0.1266 -0.351,-2.1916 c 1.016,-0.5962 1.811,-1.5291 2.229,-2.6459 h -4.649 v -3.4393 h 4.717 z"
     id="path4819"
     inkscape:connector-curvature="0"
     style="fill:#ffffff" />
  <path
     d="m 141.442,67.183 0.001,5e-4 c -1.49,1.1975 -3.383,1.914 -5.443,1.914 -3.311,0 -6.189,-1.8505 -7.657,-4.5737 l 2.817,-2.3063 c 0.734,1.9595 2.624,3.3543 4.84,3.3543 0.953,0 1.845,-0.2575 2.611,-0.707 z"
     id="path4821"
     inkscape:connector-curvature="0"
     style="fill:#ffffff" />
  <path
     d="m 141.549,53.7112 -2.816,2.3057 c -0.792,-0.4953 -1.729,-0.7814 -2.733,-0.7814 -2.266,0 -4.191,1.4588 -4.889,3.4885 l -2.832,-2.3187 v 0 c 1.446,-2.7896 4.361,-4.6956 7.721,-4.6956 2.11,0 4.044,0.7514 5.549,2.0015 z"
     id="path4823"
     inkscape:connector-curvature="0"
     style="fill:#ffffff" />
  <g
     id="g1033">
    <rect
       style="fill:#666666"
       x="0"
       id="rect4825"
       rx="2"
       height="32"
       width="32"
       y="0" />
    <path
       style="fill:#ffffff"
       inkscape:connector-curvature="0"
       id="path4827"
       d="m 21.1845,15.926 c -0.0089,-1.5052 0.6731,-2.6397 2.0503,-3.4762 -0.7702,-1.1035 -1.9356,-1.7105 -3.4717,-1.8274 -1.4545,-0.1148 -3.0458,0.8475 -3.6285,0.8475 -0.6157,0 -2.0238,-0.8078 -3.1318,-0.8078 -2.2865,0.0353 -4.71655,1.823 -4.71655,5.4603 0,1.0749 0.19644,2.185 0.5893,3.3283 0.52528,1.5052 2.41895,5.1933 4.39435,5.1337 1.0329,-0.0243 1.7634,-0.7328 3.1075,-0.7328 1.3044,0 1.9798,0.7328 3.1319,0.7328 1.993,-0.0287 3.7057,-3.3813 4.2045,-4.8909 C 21.041,18.4332 21.1845,16.0032 21.1845,15.926 Z M 18.8648,9.19438 c 1.119,-1.32867 1.0175,-2.53815 0.9844,-2.97294 -0.9888,0.05738 -2.1321,0.67316 -2.7832,1.43019 -0.7173,0.8122 -1.1388,1.81643 -1.0483,2.94867 1.0682,0.0817 2.0437,-0.4679 2.8471,-1.40592 z" />
  </g>
  <rect
     y="44"
     width="32"
     height="32"
     rx="2"
     id="rect4829"
     x="0"
     style="fill:#000000" />
  <path
     d="m 21.1845,59.926 c -0.0089,-1.5052 0.6731,-2.6397 2.0503,-3.4762 -0.7702,-1.1035 -1.9356,-1.7105 -3.4717,-1.8274 -1.4545,-0.1148 -3.0458,0.8475 -3.6285,0.8475 -0.6157,0 -2.0238,-0.8078 -3.1318,-0.8078 -2.2865,0.0353 -4.71655,1.823 -4.71655,5.4603 0,1.0749 0.19644,2.185 0.5893,3.3283 0.52528,1.5052 2.41895,5.1933 4.39435,5.1337 1.0329,-0.0243 1.7634,-0.7328 3.1075,-0.7328 1.3044,0 1.9798,0.7328 3.1319,0.7328 1.993,-0.0287 3.7057,-3.3813 4.2045,-4.8909 -2.6728,-1.2603 -2.5293,-3.6903 -2.5293,-3.7675 z m -2.3197,-6.7316 c 1.119,-1.3287 1.0175,-2.5382 0.9844,-2.973 -0.9888,0.0574 -2.1321,0.6732 -2.7832,1.4302 -0.7173,0.8122 -1.1388,1.8165 -1.0483,2.9487 1.0682,0.0817 2.0437,-0.4679 2.8471,-1.4059 z"
     id="path4831"
     inkscape:connector-curvature="0"
     style="fill:#ffffff" />
  <rect
     x="160"
     y="0"
     width="32"
     height="32"
     rx="2"
     id="rect4833"
     style="fill:#d75533" />
  <path
     d="m 173.16,25.5709 3.215,-6.8651 h 1.42 v 6.8651 h 2.018 V 7.17993 h -3.574 c -2.275,0 -4.985,2.31265 -4.985,6.06997 0,3.7579 3.401,5.2752 3.401,5.2752 l -4.037,7.0458 z m 1.246,-9.3908 c -0.496,-0.6034 -0.929,-1.607 -0.929,-3.273 0,-3.64957 2.171,-4.12097 2.471,-4.16826 0.021,-0.0035 0.042,-0.00467 0.063,-0.00467 h 1.728 v 8.34573 h -1.344 c -0.768,0 -1.51,-0.319 -1.989,-0.8998 z"
     id="path4835"
     inkscape:connector-curvature="0"
     style="fill:#ffffff" />
  <rect
     x="160"
     y="44"
     width="32"
     height="32"
     rx="2"
     id="rect4837"
     style="fill:#cd2a00" />
  <path
     d="m 173.16,69.5709 3.215,-6.8651 h 1.42 v 6.8651 h 2.018 v -18.391 h -3.574 c -2.275,0 -4.985,2.3127 -4.985,6.07 0,3.7579 3.401,5.2752 3.401,5.2752 l -4.037,7.0458 z m 1.246,-9.3908 c -0.496,-0.6034 -0.929,-1.607 -0.929,-3.273 0,-3.6496 2.171,-4.121 2.471,-4.1683 0.021,-0.0035 0.042,-0.0046 0.063,-0.0046 h 1.728 v 8.3457 h -1.344 c -0.768,0 -1.51,-0.319 -1.989,-0.8998 z"
     id="path4839"
     inkscape:connector-curvature="0"
     style="fill:#ffffff" />
  <rect
     x="240"
     y="0"
     width="32"
     height="32"
     rx="2"
     id="rect4841"
     style="fill:#f68f49" />
  <path
     d="m 261.377,17.0503 c 0.452,0.8901 -0.062,1.3157 -1.235,2.0426 -0.997,0.6161 -2.375,0.8414 -3.26,0.9316 l 0.742,0.7136 c 1.051,1.001 2.048,1.9702 2.746,2.6418 1.015,0.9729 -0.619,2.5339 -1.634,1.5816 l -2.746,-2.6484 c -1.051,1.0113 -2.059,1.9806 -2.746,2.6521 -1.015,0.956 -2.648,-0.5917 -1.644,-1.5817 l 2.746,-2.6417 0.752,-0.7136 c -0.896,-0.0902 -2.253,-0.3288 -3.239,-0.9316 l 0.001,-8e-4 c -1.173,-0.7306 -1.687,-1.1554 -1.241,-2.0455 0.27,-0.5054 0.996,-0.9279 1.964,-0.1973 0,0 1.307,1.001 3.415,1.001 2.108,0 3.414,-1.001 3.414,-1.001 0.968,-0.7343 1.698,-0.3081 1.965,0.1973 z"
     id="path4843"
     inkscape:connector-curvature="0"
     style="fill:#ffffff" />
  <path
     d="m 256,16.5038 c -2.569,0 -4.667,-2.0079 -4.667,-4.4797 0,-2.48224 2.098,-4.49016 4.667,-4.49016 2.57,0 4.668,2.00792 4.668,4.49016 0,2.4718 -2.098,4.4797 -4.668,4.4797 z m 0,-6.69526 c -1.262,0 -2.292,0.99066 -2.292,2.21556 0,1.2145 1.03,2.2051 2.292,2.2051 1.263,0 2.292,-0.9906 2.292,-2.2051 0.001,-1.2256 -1.029,-2.21556 -2.292,-2.21556 z"
     id="path4845"
     inkscape:connector-curvature="0"
     style="fill:#ffffff" />
  <rect
     x="240"
     y="44"
     width="32"
     height="32"
     rx="2"
     id="rect4847"
     style="fill:#f4731c" />
  <path
     d="m 261.377,61.0503 c 0.452,0.8901 -0.062,1.3157 -1.235,2.0426 -0.997,0.6161 -2.375,0.8414 -3.26,0.9316 l 0.742,0.7136 c 1.051,1.001 2.048,1.9702 2.746,2.6418 1.015,0.9729 -0.619,2.5339 -1.634,1.5816 l -2.746,-2.6484 c -1.051,1.0113 -2.059,1.9806 -2.746,2.6521 -1.015,0.956 -2.648,-0.5917 -1.644,-1.5817 l 2.746,-2.6417 0.752,-0.7136 c -0.896,-0.0902 -2.253,-0.3288 -3.239,-0.9316 l 0.001,-8e-4 c -1.173,-0.7306 -1.687,-1.1554 -1.241,-2.0455 0.27,-0.5054 0.996,-0.9279 1.964,-0.1973 0,0 1.307,1.001 3.415,1.001 2.108,0 3.414,-1.001 3.414,-1.001 0.968,-0.7343 1.698,-0.3081 1.965,0.1973 z"
     id="path4849"
     inkscape:connector-curvature="0"
     style="fill:#ffffff" />
  <path
     d="m 256,60.5038 c -2.569,0 -4.667,-2.0079 -4.667,-4.4797 0,-2.4822 2.098,-4.4902 4.667,-4.4902 2.57,0 4.668,2.008 4.668,4.4902 0,2.4718 -2.098,4.4797 -4.668,4.4797 z m 0,-6.6953 c -1.262,0 -2.292,0.9907 -2.292,2.2156 0,1.2145 1.03,2.2051 2.292,2.2051 1.263,0 2.292,-0.9906 2.292,-2.2051 0.001,-1.2256 -1.029,-2.2156 -2.292,-2.2156 z"
     id="path4851"
     inkscape:connector-curvature="0"
     style="fill:#ffffff" />
  <rect
     x="200"
     y="0"
     width="32"
     height="32"
     rx="2"
     id="rect4853"
     style="fill:#ffb133" />
  <path
     d="m 218.739,16.4031 c 0,1.5104 -1.229,2.739 -2.739,2.739 -1.511,0 -2.739,-1.2286 -2.739,-2.739 0,-1.5103 1.228,-2.739 2.739,-2.739 1.51,0 2.739,1.2287 2.739,2.739 z M 216,7.29785 c -5.021,0 -9.105,4.08485 -9.105,9.10525 0,5.0205 4.084,9.1053 9.105,9.1053 1.839,0 3.613,-0.5474 5.129,-1.5837 l 0.026,-0.0182 -1.227,-1.4262 -0.02,0.0137 c -1.167,0.7506 -2.519,1.1478 -3.908,1.1478 -3.992,0 -7.239,-3.2471 -7.239,-7.2387 0,-3.9915 3.247,-7.23867 7.239,-7.23867 3.991,0 7.239,3.24717 7.239,7.23867 0,0.5173 -0.058,1.0409 -0.171,1.5559 -0.229,0.9395 -0.887,1.2275 -1.381,1.1894 -0.497,-0.0404 -1.078,-0.3944 -1.082,-1.2605 v -0.6602 -0.8246 c 0,-2.5398 -2.065,-4.6055 -4.605,-4.6055 -2.54,0 -4.606,2.0657 -4.606,4.6055 0,2.5398 2.066,4.6056 4.606,4.6056 1.234,0 2.391,-0.4826 3.263,-1.3595 0.507,0.7893 1.334,1.2844 2.275,1.3595 0.08,0.0068 0.163,0.0102 0.245,0.0102 0.662,0 1.318,-0.2213 1.848,-0.6237 0.545,-0.4143 0.953,-1.0135 1.178,-1.7334 0.036,-0.1161 0.102,-0.3824 0.103,-0.3841 l 0.001,-0.0097 c 0.133,-0.5776 0.192,-1.1535 0.192,-1.8649 0,-5.0204 -4.085,-9.10525 -9.105,-9.10525 z"
     id="path4855"
     inkscape:connector-curvature="0"
     style="fill:#ffffff" />
  <rect
     x="200"
     y="44"
     width="32"
     height="32"
     rx="2"
     id="rect4857"
     style="fill:#ff9e00" />
  <path
     d="m 218.739,60.4031 c 0,1.5104 -1.229,2.739 -2.739,2.739 -1.511,0 -2.739,-1.2286 -2.739,-2.739 0,-1.5103 1.228,-2.739 2.739,-2.739 1.51,0 2.739,1.2287 2.739,2.739 z M 216,51.2979 c -5.021,0 -9.105,4.0848 -9.105,9.1052 0,5.0205 4.084,9.1053 9.105,9.1053 1.839,0 3.613,-0.5474 5.129,-1.5837 l 0.026,-0.0182 -1.227,-1.4262 -0.02,0.0137 c -1.167,0.7506 -2.519,1.1478 -3.908,1.1478 -3.992,0 -7.239,-3.2471 -7.239,-7.2387 0,-3.9915 3.247,-7.2387 7.239,-7.2387 3.991,0 7.239,3.2472 7.239,7.2387 0,0.5173 -0.058,1.0409 -0.171,1.5559 -0.229,0.9395 -0.887,1.2275 -1.381,1.1894 -0.497,-0.0404 -1.078,-0.3944 -1.082,-1.2605 v -0.6602 -0.8246 c 0,-2.5398 -2.065,-4.6055 -4.605,-4.6055 -2.54,0 -4.606,2.0657 -4.606,4.6055 0,2.5398 2.066,4.6056 4.606,4.6056 1.234,0 2.391,-0.4826 3.263,-1.3595 0.507,0.7893 1.334,1.2844 2.275,1.3595 0.08,0.0068 0.163,0.0102 0.245,0.0102 0.662,0 1.318,-0.2213 1.848,-0.6237 0.545,-0.4143 0.953,-1.0135 1.178,-1.7334 0.036,-0.1161 0.102,-0.3824 0.103,-0.3841 l 0.001,-0.0097 c 0.133,-0.5776 0.192,-1.1535 0.192,-1.8649 0,-5.0204 -4.085,-9.1052 -9.105,-9.1052 z"
     id="path4859"
     inkscape:connector-curvature="0"
     style="fill:#ffffff" />
  <rect
     x="280"
     y="0"
     width="32"
     height="32"
     rx="2"
     id="rect4861"
     style="fill:#d64e4e" />
  <path
     d="m 294.206,22.9013 h -3.022 c -1.188,0 -2.159,-0.9522 -2.159,-2.1321 V 8.47833 c 0,-0.19568 0.158,-0.35431 0.354,-0.35431 h 13.242 c 0.196,0 0.354,0.15863 0.354,0.35431 V 20.7692 c 0,1.1799 -0.971,2.1321 -2.159,2.1321 h -1.362 c -1.272,0 -2.027,0.342 -3.078,1.4091 -0.413,0.3968 -0.749,0.7402 -1.008,1.0304 -0.259,0.2902 -0.48,0.5508 -0.662,0.7817 -0.129,0.1461 -0.203,0.1783 -0.296,0.1783 -0.093,0 -0.204,-0.0322 -0.204,-0.1783 z m -2.923,-12.5186 v 9.7435 c 0,0.2781 0.236,0.5111 0.53,0.5111 h 3.975 v 1.2385 c 0.991,-0.8885 1.917,-1.2385 3.215,-1.2385 h 1.184 c 0.294,0 0.53,-0.233 0.53,-0.5111 v -9.7435 z"
     id="path4863"
     inkscape:connector-curvature="0"
     style="fill:#ffffff" />
  <rect
     x="280"
     y="44"
     width="32"
     height="32"
     rx="2"
     id="rect4865"
     style="fill:#cc2222" />
  <path
     d="m 294.206,66.9013 h -3.022 c -1.188,0 -2.159,-0.9522 -2.159,-2.1321 V 52.4783 c 0,-0.1956 0.158,-0.3543 0.354,-0.3543 h 13.242 c 0.196,0 0.354,0.1587 0.354,0.3543 v 12.2909 c 0,1.1799 -0.971,2.1321 -2.159,2.1321 h -1.362 c -1.272,0 -2.027,0.342 -3.078,1.4091 -0.413,0.3968 -0.749,0.7402 -1.008,1.0304 -0.259,0.2902 -0.48,0.5508 -0.662,0.7817 -0.129,0.1461 -0.203,0.1783 -0.296,0.1783 -0.093,0 -0.204,-0.0322 -0.204,-0.1783 z m -2.923,-12.5186 v 9.7435 c 0,0.2781 0.236,0.5111 0.53,0.5111 h 3.975 v 1.2385 c 0.991,-0.8885 1.917,-1.2385 3.215,-1.2385 h 1.184 c 0.294,0 0.53,-0.233 0.53,-0.5111 v -9.7435 z"
     id="path4867"
     inkscape:connector-curvature="0"
     style="fill:#ffffff" />
  <rect
     x="360"
     y="0"
     width="32"
     height="32"
     rx="2"
     id="rect4869"
     style="fill:#f2637e" />
  <path
     d="m 377.115,27.6032 c -0.681,0.0123 -1.357,-0.1186 -1.984,-0.384 -0.064,0 -1.494,-0.6934 -3.094,-1.664 -1.6,-0.9707 -2.869,-1.9307 -2.922,-1.9734 -0.47,-0.3872 -0.864,-0.8572 -1.163,-1.3866 l 0.917,-0.544 c 0.239,0.4077 0.55,0.7691 0.918,1.0666 0,0 1.269,0.9707 2.826,1.9094 1.558,0.9386 2.976,1.6 2.998,1.6106 0.985,0.3787 2.076,0.3787 3.061,0 0,0 1.44,-0.672 2.997,-1.6106 1.558,-0.9387 2.816,-1.8987 2.827,-1.9094 0.829,-0.7286 1.377,-1.7252 1.547,-2.816 0,0 0.17,-1.6426 0.17,-3.52 0,-1.8773 -0.16,-3.5093 -0.17,-3.52 -0.171,-1.0905 -0.718,-2.0868 -1.547,-2.816 0,0 -1.269,-0.97063 -2.827,-1.9093 -1.557,-0.93867 -3.05,-1.57867 -3.05,-1.57867 -0.986,-0.37868 -2.076,-0.37868 -3.062,0 0,0 -1.44,0.672 -2.986,1.61067 -1.547,0.93867 -2.795,1.888 -2.806,1.8987 -0.367,0.2979 -0.677,0.6591 -0.917,1.0666 l -0.896,-0.5226 c 0.305,-0.5316 0.707,-1.00179 1.184,-1.3867 0,0 1.312,-1.00267 2.923,-1.97333 1.61,-0.97067 3.04,-1.632 3.093,-1.664 1.27,-0.5075 2.687,-0.5075 3.957,0 0.064,0 1.483,0.69333 3.094,1.664 1.61,0.97066 2.816,1.93066 2.912,1.97333 1.062,0.9073 1.76,2.1694 1.962,3.552 0,0.064 0.171,1.696 0.171,3.6267 0,1.9306 -0.16,3.5626 -0.171,3.6266 -0.202,1.3826 -0.9,2.6447 -1.962,3.552 0,0 -1.312,1.0027 -2.923,1.9734 -1.611,0.9706 -3.04,1.632 -3.093,1.664 -0.628,0.2654 -1.304,0.3963 -1.984,0.384 z"
     id="path4871"
     inkscape:connector-curvature="0"
     style="fill:#ffffff" />
  <path
     d="m 364.752,13.2034 h 4.267 V 14.27 h -3.2 v 5.3334 h -1.067 z"
     id="path4873"
     inkscape:connector-curvature="0"
     style="fill:#ffffff" />
  <path
     d="m 373.285,14.27 c 0.422,0 0.835,0.1252 1.186,0.3596 0.35,0.2344 0.624,0.5676 0.785,0.9574 0.162,0.3898 0.204,0.8187 0.122,1.2326 -0.083,0.4138 -0.286,0.7939 -0.584,1.0923 -0.298,0.2983 -0.679,0.5015 -1.092,0.5838 -0.414,0.0823 -0.843,0.0401 -1.233,-0.1214 -0.39,-0.1615 -0.723,-0.4349 -0.957,-0.7857 -0.235,-0.3508 -0.36,-0.7633 -0.36,-1.1852 0,-0.5658 0.225,-1.1084 0.625,-1.5085 0.4,-0.4001 0.943,-0.6249 1.508,-0.6249 z m 0,-1.0666 c -0.632,0 -1.251,0.1876 -1.777,0.5393 -0.527,0.3516 -0.937,0.8514 -1.179,1.4361 -0.242,0.5847 -0.306,1.2281 -0.182,1.8489 0.123,0.6207 0.428,1.1909 0.876,1.6384 0.447,0.4475 1.017,0.7523 1.638,0.8758 0.621,0.1235 1.264,0.0601 1.849,-0.1821 0.585,-0.2422 1.085,-0.6524 1.436,-1.1786 0.352,-0.5262 0.539,-1.1449 0.539,-1.7778 0,-0.8487 -0.337,-1.6627 -0.937,-2.2628 -0.6,-0.6001 -1.414,-0.9372 -2.263,-0.9372 z"
     id="path4875"
     inkscape:connector-curvature="0"
     style="fill:#ffffff" />
  <path
     d="m 380.752,19.6034 c -0.508,-0.0012 -1.008,-0.123 -1.459,-0.3555 -0.451,-0.2324 -0.84,-0.5688 -1.136,-0.9814 -0.295,-0.4126 -0.488,-0.8896 -0.563,-1.3916 -0.075,-0.5019 -0.029,-1.0144 0.133,-1.4953 0.163,-0.4808 0.437,-0.9161 0.801,-1.27 0.364,-0.3538 0.806,-0.6161 1.291,-0.7651 0.485,-0.1491 0.999,-0.1806 1.499,-0.092 0.499,0.0886 0.971,0.2948 1.375,0.6015 l -0.65,0.8427 c -0.373,-0.2792 -0.826,-0.429 -1.291,-0.4267 -0.343,4e-4 -0.681,0.0834 -0.985,0.2421 -0.304,0.1587 -0.566,0.3884 -0.762,0.6696 -0.196,0.2812 -0.322,0.6056 -0.366,0.9458 -0.045,0.3401 -0.007,0.6859 0.111,1.0081 0.118,0.3222 0.312,0.6112 0.565,0.8426 0.253,0.2314 0.558,0.3983 0.89,0.4866 0.331,0.0883 0.679,0.0954 1.014,0.0206 0.335,-0.0747 0.646,-0.2291 0.909,-0.45 l 0.683,0.8213 c -0.578,0.4832 -1.306,0.7476 -2.059,0.7467 z"
     id="path4877"
     inkscape:connector-curvature="0"
     style="fill:#ffffff" />
  <rect
     x="400"
     y="0"
     width="32"
     height="32"
     rx="2"
     id="rect4879"
     style="fill:#f0f5fb" />
  <circle
     cx="410"
     cy="16.403299"
     r="2"
     id="circle4881"
     style="fill:#587ab0" />
  <circle
     cx="416"
     cy="16.403299"
     r="2"
     id="circle4883"
     style="fill:#587ab0" />
  <circle
     cx="422"
     cy="16.403299"
     r="2"
     id="circle4885"
     style="fill:#587ab0" />
  <rect
     x="400"
     y="44"
     width="32"
     height="32"
     rx="2"
     id="rect4887"
     style="fill:#e2ecf8" />
  <circle
     cx="410"
     cy="60"
     r="2"
     id="circle4889"
     style="fill:#587ab0" />
  <circle
     cx="416"
     cy="60"
     r="2"
     id="circle4891"
     style="fill:#587ab0" />
  <circle
     cx="422"
     cy="60"
     r="2"
     id="circle4893"
     style="fill:#587ab0" />
  <rect
     x="360"
     y="44"
     width="32"
     height="32"
     rx="2"
     id="rect4895"
     style="fill:#ee2f53" />
  <path
     d="m 377.115,71.6032 c -0.681,0.0123 -1.357,-0.1186 -1.984,-0.384 -0.064,0 -1.494,-0.6934 -3.094,-1.664 -1.6,-0.9707 -2.869,-1.9307 -2.922,-1.9734 -0.47,-0.3872 -0.864,-0.8572 -1.163,-1.3866 l 0.917,-0.544 c 0.239,0.4077 0.55,0.7691 0.918,1.0666 0,0 1.269,0.9707 2.826,1.9094 1.558,0.9386 2.976,1.6 2.998,1.6106 0.985,0.3787 2.076,0.3787 3.061,0 0,0 1.44,-0.672 2.997,-1.6106 1.558,-0.9387 2.816,-1.8987 2.827,-1.9094 0.829,-0.7286 1.377,-1.7252 1.547,-2.816 0,0 0.17,-1.6426 0.17,-3.52 0,-1.8773 -0.16,-3.5093 -0.17,-3.52 -0.171,-1.0905 -0.718,-2.0868 -1.547,-2.816 0,0 -1.269,-0.9706 -2.827,-1.9093 -1.557,-0.9387 -3.05,-1.5787 -3.05,-1.5787 -0.986,-0.3787 -2.076,-0.3787 -3.062,0 0,0 -1.44,0.672 -2.986,1.6107 -1.547,0.9387 -2.795,1.888 -2.806,1.8987 -0.367,0.2979 -0.677,0.6591 -0.917,1.0666 l -0.896,-0.5226 c 0.305,-0.5316 0.707,-1.0018 1.184,-1.3867 0,0 1.312,-1.0027 2.923,-1.9733 1.61,-0.9707 3.04,-1.632 3.093,-1.664 1.27,-0.5075 2.687,-0.5075 3.957,0 0.064,0 1.483,0.6933 3.094,1.664 1.61,0.9706 2.816,1.9306 2.912,1.9733 1.062,0.9073 1.76,2.1694 1.962,3.552 0,0.064 0.171,1.696 0.171,3.6267 0,1.9306 -0.16,3.5626 -0.171,3.6266 -0.202,1.3826 -0.9,2.6447 -1.962,3.552 0,0 -1.312,1.0027 -2.923,1.9734 -1.611,0.9706 -3.04,1.632 -3.093,1.664 -0.628,0.2654 -1.304,0.3963 -1.984,0.384 z"
     id="path4897"
     inkscape:connector-curvature="0"
     style="fill:#ffffff" />
  <path
     d="m 364.752,57.2034 h 4.267 V 58.27 h -3.2 v 5.3334 h -1.067 z"
     id="path4899"
     inkscape:connector-curvature="0"
     style="fill:#ffffff" />
  <path
     d="m 373.285,58.27 c 0.422,0 0.835,0.1252 1.186,0.3596 0.35,0.2344 0.624,0.5676 0.785,0.9574 0.162,0.3898 0.204,0.8187 0.122,1.2326 -0.083,0.4138 -0.286,0.7939 -0.584,1.0923 -0.298,0.2983 -0.679,0.5015 -1.092,0.5838 -0.414,0.0823 -0.843,0.0401 -1.233,-0.1214 -0.39,-0.1615 -0.723,-0.4349 -0.957,-0.7857 -0.235,-0.3508 -0.36,-0.7633 -0.36,-1.1852 0,-0.5658 0.225,-1.1084 0.625,-1.5085 0.4,-0.4001 0.943,-0.6249 1.508,-0.6249 z m 0,-1.0666 c -0.632,0 -1.251,0.1876 -1.777,0.5393 -0.527,0.3516 -0.937,0.8514 -1.179,1.4361 -0.242,0.5847 -0.306,1.2281 -0.182,1.8489 0.123,0.6207 0.428,1.1909 0.876,1.6384 0.447,0.4475 1.017,0.7523 1.638,0.8758 0.621,0.1235 1.264,0.0601 1.849,-0.1821 0.585,-0.2422 1.085,-0.6524 1.436,-1.1786 0.352,-0.5262 0.539,-1.1449 0.539,-1.7778 0,-0.8487 -0.337,-1.6627 -0.937,-2.2628 -0.6,-0.6001 -1.414,-0.9372 -2.263,-0.9372 z"
     id="path4901"
     inkscape:connector-curvature="0"
     style="fill:#ffffff" />
  <path
     d="m 380.752,63.6034 c -0.508,-0.0012 -1.008,-0.123 -1.459,-0.3555 -0.451,-0.2324 -0.84,-0.5688 -1.136,-0.9814 -0.295,-0.4126 -0.488,-0.8896 -0.563,-1.3916 -0.075,-0.5019 -0.029,-1.0144 0.133,-1.4953 0.163,-0.4808 0.437,-0.9161 0.801,-1.27 0.364,-0.3538 0.806,-0.6161 1.291,-0.7651 0.485,-0.1491 0.999,-0.1806 1.499,-0.092 0.499,0.0886 0.971,0.2948 1.375,0.6015 l -0.65,0.8427 c -0.373,-0.2792 -0.826,-0.429 -1.291,-0.4267 -0.343,4e-4 -0.681,0.0834 -0.985,0.2421 -0.304,0.1587 -0.566,0.3884 -0.762,0.6696 -0.196,0.2812 -0.322,0.6056 -0.366,0.9458 -0.045,0.3401 -0.007,0.6859 0.111,1.0081 0.118,0.3222 0.312,0.6112 0.565,0.8426 0.253,0.2314 0.558,0.3983 0.89,0.4866 0.331,0.0883 0.679,0.0954 1.014,0.0206 0.335,-0.0747 0.646,-0.2291 0.909,-0.45 l 0.683,0.8213 c -0.578,0.4832 -1.306,0.7476 -2.059,0.7467 z"
     id="path4903"
     inkscape:connector-curvature="0"
     style="fill:#ffffff" />
  <rect
     x="320"
     y="0"
     width="32"
     height="32"
     rx="2"
     id="rect4905"
     style="fill:#3377c9" />
  <path
     d="m 342.719,9.68455 c -2.081,-2.08072 -5.466,-2.08069 -7.547,3e-5 -1.421,1.42122 -1.915,3.51572 -1.299,5.41592 l -6.01,6.0098 c -0.091,0.091 -0.142,0.2141 -0.142,0.343 v 2.7444 c 0,0.2682 0.217,0.4852 0.485,0.4852 h 2.744 c 0.129,0 0.252,-0.0512 0.343,-0.1422 l 0.686,-0.6865 c 0.105,-0.1046 0.156,-0.2515 0.139,-0.3989 l -0.085,-0.7371 1.021,-0.0962 c 0.232,-0.0218 0.416,-0.2051 0.437,-0.4373 l 0.097,-1.0214 0.737,0.0857 c 0.137,0.0185 0.275,-0.0274 0.378,-0.1193 0.104,-0.0924 0.163,-0.2241 0.163,-0.3624 V 19.864 h 0.887 c 0.129,0 0.252,-0.0512 0.343,-0.1422 l 1.244,-1.2276 c 1.899,0.6159 3.958,0.1594 5.379,-1.2628 2.081,-2.0807 2.081,-5.4661 0,-7.54685 z m -1.372,3.43045 c -0.568,0.5676 -1.491,0.5676 -2.058,0 -0.568,-0.5676 -0.568,-1.4904 0,-2.058 0.567,-0.5675 1.49,-0.5675 2.058,0 0.567,0.5676 0.567,1.4904 0,2.058 z"
     id="path4907"
     inkscape:connector-curvature="0"
     style="fill:#ffffff" />
  <rect
     x="320"
     y="44"
     width="32"
     height="32"
     rx="2"
     id="rect4909"
     style="fill:#0055bb" />
  <path
     d="m 342.719,53.6845 c -2.081,-2.0807 -5.466,-2.0806 -7.547,1e-4 -1.421,1.4212 -1.915,3.5157 -1.299,5.4159 l -6.01,6.0098 c -0.091,0.091 -0.142,0.2141 -0.142,0.343 v 2.7444 c 0,0.2682 0.217,0.4852 0.485,0.4852 h 2.744 c 0.129,0 0.252,-0.0512 0.343,-0.1422 l 0.686,-0.6865 c 0.105,-0.1046 0.156,-0.2515 0.139,-0.3989 l -0.085,-0.7371 1.021,-0.0962 c 0.232,-0.0218 0.416,-0.2051 0.437,-0.4373 l 0.097,-1.0214 0.737,0.0857 c 0.137,0.0185 0.275,-0.0274 0.378,-0.1193 0.104,-0.0924 0.163,-0.2241 0.163,-0.3624 V 63.864 h 0.887 c 0.129,0 0.252,-0.0512 0.343,-0.1422 l 1.244,-1.2276 c 1.899,0.6159 3.958,0.1594 5.379,-1.2628 2.081,-2.0807 2.081,-5.4661 0,-7.5469 z m -1.372,3.4305 c -0.568,0.5676 -1.491,0.5676 -2.058,0 -0.568,-0.5676 -0.568,-1.4904 0,-2.058 0.567,-0.5675 1.49,-0.5675 2.058,0 0.567,0.5676 0.567,1.4904 0,2.058 z"
     id="path4911"
     inkscape:connector-curvature="0"
     style="fill:#ffffff" />
  <rect
     x="64"
     y="100.403"
     width="24"
     height="24"
     rx="2"
     id="rect4913"
     style="fill:#7191b4" />
  <path
     d="m 75.8362,116.985 h 0.9116 c 0,0 0.2754,-0.03 0.4159,-0.182 0.1294,-0.139 0.1253,-0.4 0.1253,-0.4 0,0 -0.0178,-1.223 0.5499,-1.403 0.5596,-0.178 1.2782,1.182 2.0399,1.705 0.576,0.395 1.0136,0.309 1.0136,0.309 l 2.0367,-0.029 c 0,0 1.0654,-0.065 0.5602,-0.903 -0.0414,-0.069 -0.2942,-0.62 -1.5143,-1.752 -1.277,-1.185 -1.1059,-0.994 0.4323,-3.044 0.9369,-1.249 1.3114,-2.011 1.1944,-2.337 -0.1116,-0.311 -0.8006,-0.229 -0.8006,-0.229 l -2.2931,0.014 c 0,0 -0.17,-0.023 -0.2961,0.052 -0.1232,0.074 -0.2025,0.246 -0.2025,0.246 0,0 -0.3629,0.967 -0.8469,1.788 -1.0211,1.734 -1.4294,1.826 -1.5963,1.718 -0.3882,-0.251 -0.2913,-1.008 -0.2913,-1.546 0,-1.68 0.2549,-2.381 -0.4963,-2.562 -0.2492,-0.06 -0.4327,-0.1 -1.0701,-0.106 -0.8182,-0.009 -1.5108,0.002 -1.9029,0.194 -0.2609,0.128 -0.4621,0.413 -0.3395,0.429 0.1515,0.02 0.4948,0.092 0.6768,0.34 0.235,0.32 0.2267,1.038 0.2267,1.038 0,0 0.135,1.978 -0.3153,2.224 -0.3091,0.168 -0.7332,-0.176 -1.6435,-1.749 -0.4664,-0.806 -0.8186,-1.696 -0.8186,-1.696 0,0 -0.0679,-0.167 -0.189,-0.256 -0.147,-0.108 -0.3524,-0.142 -0.3524,-0.142 l -2.1791,0.014 c 0,0 -0.3271,0.009 -0.4472,0.152 -0.1068,0.126 -0.0084,0.388 -0.0084,0.388 0,0 1.7059,3.991 3.6376,6.002 1.7712,1.844 3.7825,1.723 3.7825,1.723 z"
     id="path4915"
     inkscape:connector-curvature="0"
     style="clip-rule:evenodd;fill:#ffffff;fill-rule:evenodd" />
  <rect
     x="64"
     y="136.403"
     width="24"
     height="24"
     rx="2"
     id="rect4917"
     style="fill:#4d76a1" />
  <path
     d="m 75.8362,152.985 h 0.9116 c 0,0 0.2754,-0.03 0.4159,-0.182 0.1294,-0.139 0.1253,-0.4 0.1253,-0.4 0,0 -0.0178,-1.223 0.5499,-1.403 0.5596,-0.178 1.2782,1.182 2.0399,1.705 0.576,0.395 1.0136,0.309 1.0136,0.309 l 2.0367,-0.029 c 0,0 1.0654,-0.065 0.5602,-0.903 -0.0414,-0.069 -0.2942,-0.62 -1.5143,-1.752 -1.277,-1.185 -1.1059,-0.994 0.4323,-3.044 0.9369,-1.249 1.3114,-2.011 1.1944,-2.337 -0.1116,-0.311 -0.8006,-0.229 -0.8006,-0.229 l -2.2931,0.014 c 0,0 -0.17,-0.023 -0.2961,0.052 -0.1232,0.074 -0.2025,0.246 -0.2025,0.246 0,0 -0.3629,0.967 -0.8469,1.788 -1.0211,1.734 -1.4294,1.826 -1.5963,1.718 -0.3882,-0.251 -0.2913,-1.008 -0.2913,-1.546 0,-1.68 0.2549,-2.381 -0.4963,-2.562 -0.2492,-0.06 -0.4327,-0.1 -1.0701,-0.106 -0.8182,-0.009 -1.5108,0.002 -1.9029,0.194 -0.2609,0.128 -0.4621,0.413 -0.3395,0.429 0.1515,0.02 0.4948,0.092 0.6768,0.34 0.235,0.32 0.2267,1.038 0.2267,1.038 0,0 0.135,1.978 -0.3153,2.224 -0.3091,0.168 -0.7332,-0.176 -1.6435,-1.749 -0.4664,-0.806 -0.8186,-1.696 -0.8186,-1.696 0,0 -0.0679,-0.167 -0.189,-0.256 -0.147,-0.108 -0.3524,-0.142 -0.3524,-0.142 l -2.1791,0.014 c 0,0 -0.3271,0.009 -0.4472,0.152 -0.1068,0.126 -0.0084,0.388 -0.0084,0.388 0,0 1.7059,3.991 3.6376,6.002 1.7712,1.844 3.7825,1.723 3.7825,1.723 z"
     id="path4919"
     inkscape:connector-curvature="0"
     style="clip-rule:evenodd;fill:#ffffff;fill-rule:evenodd" />
  <rect
     x="32"
     y="100.403"
     width="24"
     height="24"
     rx="2"
     id="rect4921"
     style="fill:#627aad" />
  <path
     d="m 46.8809,112.371 h -1.8587 v 6.809 h -2.8161 v -6.809 h -1.3394 v -2.393 h 1.3394 v -1.549 c 0,-1.107 0.526,-2.842 2.8412,-2.842 l 2.086,0.009 v 2.323 h -1.5136 c -0.2482,0 -0.5973,0.124 -0.5973,0.652 v 1.409 h 2.1046 z"
     id="path4923"
     inkscape:connector-curvature="0"
     style="fill:#ffffff" />
  <rect
     x="32"
     y="136.403"
     width="24"
     height="24"
     rx="2"
     id="rect4925"
     style="fill:#3b5998" />
  <path
     d="m 46.8809,148.371 h -1.8587 v 6.809 h -2.8161 v -6.809 h -1.3394 v -2.393 h 1.3394 v -1.549 c 0,-1.107 0.526,-2.842 2.8412,-2.842 l 2.086,0.009 v 2.323 h -1.5136 c -0.2482,0 -0.5973,0.124 -0.5973,0.652 v 1.409 h 2.1046 z"
     id="path4927"
     inkscape:connector-curvature="0"
     style="fill:#ffffff" />
  <rect
     x="96"
     y="100.403"
     width="24"
     height="24"
     rx="2"
     id="rect4929"
     style="fill:#e37167" />
  <path
     d="m 104.37,113.764 -0.454,1.694 -1.659,0.035 c -0.496,-0.919 -0.777,-1.971 -0.777,-3.09 0,-1.081 0.263,-2.1 0.729,-2.998 v 0 l 1.477,0.271 0.647,1.468 c -0.135,0.395 -0.209,0.818 -0.209,1.259 0,0.479 0.087,0.938 0.246,1.361 z"
     id="path4931"
     inkscape:connector-curvature="0"
     style="fill:#ffffff" />
  <path
     d="m 114.406,111.185 c 0.075,0.395 0.114,0.802 0.114,1.218 0,0.467 -0.049,0.923 -0.142,1.362 -0.318,1.494 -1.147,2.8 -2.296,3.723 v 0 l -1.861,-0.095 -0.263,-1.644 c 0.762,-0.447 1.358,-1.147 1.672,-1.984 h -3.487 v -2.58 h 3.538 z"
     id="path4933"
     inkscape:connector-curvature="0"
     style="fill:#ffffff" />
  <path
     d="m 112.082,117.488 v 0.001 c -1.117,0.898 -2.537,1.435 -4.082,1.435 -2.483,0 -4.642,-1.388 -5.743,-3.43 l 2.113,-1.73 c 0.55,1.47 1.968,2.516 3.63,2.516 0.714,0 1.384,-0.193 1.958,-0.53 z"
     id="path4935"
     inkscape:connector-curvature="0"
     style="fill:#ffffff" />
  <path
     d="m 112.162,107.384 -2.113,1.73 c -0.594,-0.372 -1.297,-0.586 -2.049,-0.586 -1.7,0 -3.144,1.094 -3.667,2.616 l -2.124,-1.739 h -0.001 c 1.086,-2.092 3.272,-3.522 5.792,-3.522 1.582,0 3.032,0.564 4.162,1.501 z"
     id="path4937"
     inkscape:connector-curvature="0"
     style="fill:#ffffff" />
  <rect
     x="96"
     y="136.403"
     width="24"
     height="24"
     rx="2"
     id="rect4939"
     style="fill:#dc4e41" />
  <path
     d="m 104.37,149.764 -0.454,1.694 -1.659,0.035 c -0.496,-0.919 -0.777,-1.971 -0.777,-3.09 0,-1.081 0.263,-2.1 0.729,-2.998 v 0 l 1.477,0.271 0.647,1.468 c -0.135,0.395 -0.209,0.818 -0.209,1.259 0,0.479 0.087,0.938 0.246,1.361 z"
     id="path4941"
     inkscape:connector-curvature="0"
     style="fill:#ffffff" />
  <path
     d="m 114.406,147.185 c 0.075,0.395 0.114,0.802 0.114,1.218 0,0.467 -0.049,0.923 -0.142,1.362 -0.318,1.494 -1.147,2.8 -2.296,3.723 v 0 l -1.861,-0.095 -0.263,-1.644 c 0.762,-0.447 1.358,-1.147 1.672,-1.984 h -3.487 v -2.58 h 3.538 z"
     id="path4943"
     inkscape:connector-curvature="0"
     style="fill:#ffffff" />
  <path
     d="m 112.082,153.488 v 0.001 c -1.117,0.898 -2.537,1.435 -4.082,1.435 -2.483,0 -4.642,-1.388 -5.743,-3.43 l 2.113,-1.73 c 0.55,1.47 1.968,2.516 3.63,2.516 0.714,0 1.384,-0.193 1.958,-0.53 z"
     id="path4945"
     inkscape:connector-curvature="0"
     style="fill:#ffffff" />
  <path
     d="m 112.162,143.384 -2.113,1.73 c -0.594,-0.372 -1.297,-0.586 -2.049,-0.586 -1.7,0 -3.144,1.094 -3.667,2.616 l -2.124,-1.739 h -0.001 c 1.086,-2.092 3.272,-3.522 5.792,-3.522 1.582,0 3.032,0.564 4.162,1.501 z"
     id="path4947"
     inkscape:connector-curvature="0"
     style="fill:#ffffff" />
  <rect
     y="100.403"
     width="24"
     height="24"
     rx="2"
     id="rect4949"
     x="0"
     style="fill:#666666" />
  <path
     d="m 15.8883,112.046 c -0.0067,-1.129 0.5048,-1.98 1.5377,-2.608 -0.5777,-0.827 -1.4517,-1.282 -2.6038,-1.37 -1.0908,-0.086 -2.2843,0.635 -2.7213,0.635 -0.4618,0 -1.5179,-0.605 -2.34889,-0.605 -1.71491,0.026 -3.53741,1.367 -3.53741,4.095 0,0.806 0.14732,1.639 0.44197,2.496 0.39396,1.129 1.81422,3.895 3.29573,3.85 0.7747,-0.018 1.3226,-0.549 2.3307,-0.549 0.9783,0 1.4848,0.549 2.3489,0.549 1.4947,-0.021 2.7792,-2.536 3.1533,-3.668 -2.0045,-0.945 -1.8969,-2.768 -1.8969,-2.825 z m -1.7398,-5.049 c 0.8393,-0.997 0.7631,-1.904 0.7383,-2.23 -0.7416,0.043 -1.599,0.505 -2.0874,1.073 -0.5379,0.609 -0.8541,1.362 -0.7862,2.211 0.8011,0.061 1.5328,-0.351 2.1353,-1.054 z"
     id="path4951"
     inkscape:connector-curvature="0"
     style="fill:#ffffff" />
  <rect
     y="136.403"
     width="24"
     height="24"
     rx="2"
     id="rect4953"
     x="0"
     style="fill:#000000" />
  <path
     d="m 15.8883,148.046 c -0.0067,-1.129 0.5048,-1.98 1.5377,-2.608 -0.5777,-0.827 -1.4517,-1.282 -2.6038,-1.37 -1.0908,-0.086 -2.2843,0.635 -2.7213,0.635 -0.4618,0 -1.5179,-0.605 -2.34889,-0.605 -1.71491,0.026 -3.53741,1.367 -3.53741,4.095 0,0.806 0.14732,1.639 0.44197,2.496 0.39396,1.129 1.81422,3.895 3.29573,3.85 0.7747,-0.018 1.3226,-0.549 2.3307,-0.549 0.9783,0 1.4848,0.549 2.3489,0.549 1.4947,-0.021 2.7792,-2.536 3.1533,-3.668 -2.0045,-0.945 -1.8969,-2.768 -1.8969,-2.825 z m -1.7398,-5.049 c 0.8393,-0.997 0.7631,-1.904 0.7383,-2.23 -0.7416,0.043 -1.599,0.505 -2.0874,1.073 -0.5379,0.609 -0.8541,1.362 -0.7862,2.211 0.8011,0.061 1.5328,-0.351 2.1353,-1.054 z"
     id="path4955"
     inkscape:connector-curvature="0"
     style="fill:#ffffff" />
  <rect
     x="128"
     y="100.403"
     width="24"
     height="24"
     rx="2"
     id="rect4957"
     style="fill:#d75533" />
  <path
     d="m 137.87,119.28 2.411,-5.149 h 1.065 v 5.149 h 1.514 v -13.794 h -2.681 c -1.706,0 -3.739,1.735 -3.739,4.553 0,2.818 2.551,3.956 2.551,3.956 l -3.028,5.285 z m 0.935,-7.044 c -0.373,-0.452 -0.697,-1.205 -0.697,-2.454 0,-2.737 1.628,-3.091 1.852,-3.126 0.017,-0.003 0.032,-0.004 0.048,-0.004 h 1.296 v 6.259 h -1.008 c -0.576,0 -1.133,-0.239 -1.491,-0.675 z"
     id="path4959"
     inkscape:connector-curvature="0"
     style="fill:#ffffff" />
  <rect
     x="128"
     y="136.403"
     width="24"
     height="24"
     rx="2"
     id="rect4961"
     style="fill:#cd2a00" />
  <path
     d="m 137.87,155.28 2.411,-5.149 h 1.065 v 5.149 h 1.514 v -13.794 h -2.681 c -1.706,0 -3.739,1.735 -3.739,4.553 0,2.818 2.551,3.956 2.551,3.956 l -3.028,5.285 z m 0.935,-7.044 c -0.373,-0.452 -0.697,-1.205 -0.697,-2.454 0,-2.737 1.628,-3.091 1.852,-3.126 0.017,-0.003 0.032,-0.004 0.048,-0.004 h 1.296 v 6.259 h -1.008 c -0.576,0 -1.133,-0.239 -1.491,-0.675 z"
     id="path4963"
     inkscape:connector-curvature="0"
     style="fill:#ffffff" />
  <rect
     x="192"
     y="100.403"
     width="24"
     height="24"
     rx="2"
     id="rect4965"
     style="fill:#f68f49" />
  <path
     d="m 208.033,112.889 c 0.339,0.668 -0.046,0.987 -0.926,1.532 -0.748,0.462 -1.781,0.631 -2.445,0.699 l 0.556,0.535 c 0.789,0.751 1.537,1.478 2.06,1.981 0.761,0.73 -0.465,1.901 -1.225,1.187 l -2.06,-1.987 c -0.788,0.759 -1.544,1.486 -2.059,1.989 -0.762,0.717 -1.987,-0.444 -1.234,-1.186 l 2.06,-1.981 0.564,-0.536 c -0.672,-0.067 -1.69,-0.246 -2.429,-0.698 v -0.001 c -0.879,-0.548 -1.265,-0.866 -0.93,-1.534 0.202,-0.379 0.747,-0.696 1.473,-0.148 0,0 0.98,0.751 2.561,0.751 1.581,0 2.561,-0.751 2.561,-0.751 0.725,-0.551 1.273,-0.231 1.473,0.148 z"
     id="path4967"
     inkscape:connector-curvature="0"
     style="fill:#ffffff" />
  <path
     d="m 204,112.479 c -1.927,0 -3.5,-1.506 -3.5,-3.36 0,-1.862 1.573,-3.368 3.5,-3.368 1.928,0 3.501,1.506 3.501,3.368 0,1.854 -1.573,3.36 -3.501,3.36 z m 0,-5.022 c -0.947,0 -1.719,0.743 -1.719,1.662 0,0.911 0.772,1.654 1.719,1.654 0.947,0 1.719,-0.743 1.719,-1.654 0.001,-0.919 -0.771,-1.662 -1.719,-1.662 z"
     id="path4969"
     inkscape:connector-curvature="0"
     style="fill:#ffffff" />
  <rect
     x="192"
     y="136.403"
     width="24"
     height="24"
     rx="2"
     id="rect4971"
     style="fill:#f4731c" />
  <path
     d="m 208.033,148.889 c 0.339,0.668 -0.046,0.987 -0.926,1.532 -0.748,0.462 -1.781,0.631 -2.445,0.699 l 0.556,0.535 c 0.789,0.751 1.537,1.478 2.06,1.981 0.761,0.73 -0.465,1.901 -1.225,1.187 l -2.06,-1.987 c -0.788,0.759 -1.544,1.486 -2.059,1.989 -0.762,0.717 -1.987,-0.444 -1.234,-1.186 l 2.06,-1.981 0.564,-0.536 c -0.672,-0.067 -1.69,-0.246 -2.429,-0.698 v -0.001 c -0.879,-0.548 -1.265,-0.866 -0.93,-1.534 0.202,-0.379 0.747,-0.696 1.473,-0.148 0,0 0.98,0.751 2.561,0.751 1.581,0 2.561,-0.751 2.561,-0.751 0.725,-0.551 1.273,-0.231 1.473,0.148 z"
     id="path4973"
     inkscape:connector-curvature="0"
     style="fill:#ffffff" />
  <path
     d="m 204,148.479 c -1.927,0 -3.5,-1.506 -3.5,-3.36 0,-1.862 1.573,-3.368 3.5,-3.368 1.928,0 3.501,1.506 3.501,3.368 0,1.854 -1.573,3.36 -3.501,3.36 z m 0,-5.022 c -0.947,0 -1.719,0.743 -1.719,1.662 0,0.911 0.772,1.654 1.719,1.654 0.947,0 1.719,-0.743 1.719,-1.654 0.001,-0.919 -0.771,-1.662 -1.719,-1.662 z"
     id="path4975"
     inkscape:connector-curvature="0"
     style="fill:#ffffff" />
  <rect
     x="160"
     y="100.403"
     width="24"
     height="24"
     rx="2"
     id="rect4977"
     style="fill:#ffb133" />
  <path
     d="m 174.054,112.403 c 0,1.133 -0.921,2.054 -2.054,2.054 -1.133,0 -2.054,-0.921 -2.054,-2.054 0,-1.133 0.921,-2.054 2.054,-2.054 1.133,0 2.054,0.921 2.054,2.054 z M 172,105.574 c -3.765,0 -6.829,3.064 -6.829,6.829 0,3.765 3.064,6.829 6.829,6.829 1.38,0 2.71,-0.41 3.847,-1.188 l 0.02,-0.013 -0.921,-1.07 -0.015,0.01 c -0.875,0.563 -1.889,0.861 -2.931,0.861 -2.994,0 -5.429,-2.435 -5.429,-5.429 0,-2.993 2.435,-5.429 5.429,-5.429 2.994,0 5.429,2.436 5.429,5.429 0,0.388 -0.043,0.781 -0.128,1.167 -0.171,0.705 -0.665,0.921 -1.035,0.892 -0.373,-0.03 -0.809,-0.296 -0.812,-0.945 v -0.495 -0.619 c 0,-1.905 -1.549,-3.454 -3.454,-3.454 -1.905,0 -3.454,1.549 -3.454,3.454 0,1.905 1.549,3.454 3.454,3.454 0.925,0 1.793,-0.362 2.447,-1.019 0.381,0.592 1.001,0.963 1.706,1.019 0.061,0.005 0.123,0.008 0.184,0.008 0.497,0 0.989,-0.166 1.386,-0.468 0.41,-0.31 0.715,-0.76 0.884,-1.3 0.027,-0.087 0.077,-0.287 0.077,-0.288 l 0.001,-0.007 c 0.1,-0.433 0.144,-0.865 0.144,-1.399 0,-3.765 -3.064,-6.829 -6.829,-6.829 z"
     id="path4979"
     inkscape:connector-curvature="0"
     style="fill:#ffffff" />
  <rect
     x="160"
     y="136.403"
     width="24"
     height="24"
     rx="2"
     id="rect4981"
     style="fill:#ff9e00" />
  <path
     d="m 174.054,148.403 c 0,1.133 -0.921,2.054 -2.054,2.054 -1.133,0 -2.054,-0.921 -2.054,-2.054 0,-1.133 0.921,-2.054 2.054,-2.054 1.133,0 2.054,0.921 2.054,2.054 z M 172,141.574 c -3.765,0 -6.829,3.064 -6.829,6.829 0,3.765 3.064,6.829 6.829,6.829 1.38,0 2.71,-0.41 3.847,-1.188 l 0.02,-0.013 -0.921,-1.07 -0.015,0.01 c -0.875,0.563 -1.889,0.861 -2.931,0.861 -2.994,0 -5.429,-2.435 -5.429,-5.429 0,-2.993 2.435,-5.429 5.429,-5.429 2.994,0 5.429,2.436 5.429,5.429 0,0.388 -0.043,0.781 -0.128,1.167 -0.171,0.705 -0.665,0.921 -1.035,0.892 -0.373,-0.03 -0.809,-0.296 -0.812,-0.945 v -0.495 -0.619 c 0,-1.905 -1.549,-3.454 -3.454,-3.454 -1.905,0 -3.454,1.549 -3.454,3.454 0,1.905 1.549,3.454 3.454,3.454 0.925,0 1.793,-0.362 2.447,-1.019 0.381,0.592 1.001,0.963 1.706,1.019 0.061,0.005 0.123,0.008 0.184,0.008 0.497,0 0.989,-0.166 1.386,-0.468 0.41,-0.31 0.715,-0.76 0.884,-1.3 0.027,-0.087 0.077,-0.287 0.077,-0.288 l 0.001,-0.007 c 0.1,-0.433 0.144,-0.865 0.144,-1.399 0,-3.765 -3.064,-6.829 -6.829,-6.829 z"
     id="path4983"
     inkscape:connector-curvature="0"
     style="fill:#ffffff" />
  <rect
     x="224"
     y="100.403"
     width="24"
     height="24"
     rx="2"
     id="rect4985"
     style="fill:#d64e4e" />
  <path
     d="m 234.654,117.277 h -2.266 c -0.891,0 -1.62,-0.714 -1.62,-1.599 v -9.218 c 0,-0.147 0.119,-0.266 0.266,-0.266 h 9.932 c 0.146,0 0.265,0.119 0.265,0.266 v 9.218 c 0,0.885 -0.728,1.599 -1.619,1.599 h -1.022 c -0.953,0 -1.52,0.256 -2.308,1.057 -0.31,0.297 -0.562,0.555 -0.756,0.772 -0.194,0.218 -0.36,0.414 -0.497,0.587 -0.096,0.109 -0.152,0.133 -0.222,0.133 -0.07,0 -0.153,-0.024 -0.153,-0.133 z m -2.192,-9.389 v 7.307 c 0,0.209 0.177,0.384 0.398,0.384 h 2.981 v 0.929 c 0.743,-0.667 1.437,-0.929 2.411,-0.929 h 0.888 c 0.221,0 0.397,-0.175 0.397,-0.384 v -7.307 z"
     id="path4987"
     inkscape:connector-curvature="0"
     style="fill:#ffffff" />
  <rect
     x="224"
     y="136.403"
     width="24"
     height="24"
     rx="2"
     id="rect4989"
     style="fill:#cc2222" />
  <path
     d="m 234.654,153.277 h -2.266 c -0.891,0 -1.62,-0.714 -1.62,-1.599 v -9.218 c 0,-0.147 0.119,-0.266 0.266,-0.266 h 9.932 c 0.146,0 0.265,0.119 0.265,0.266 v 9.218 c 0,0.885 -0.728,1.599 -1.619,1.599 h -1.022 c -0.953,0 -1.52,0.256 -2.308,1.057 -0.31,0.297 -0.562,0.555 -0.756,0.772 -0.194,0.218 -0.36,0.414 -0.497,0.587 -0.096,0.109 -0.152,0.133 -0.222,0.133 -0.07,0 -0.153,-0.024 -0.153,-0.133 z m -2.192,-9.389 v 7.307 c 0,0.209 0.177,0.384 0.398,0.384 h 2.981 v 0.929 c 0.743,-0.667 1.437,-0.929 2.411,-0.929 h 0.888 c 0.221,0 0.397,-0.175 0.397,-0.384 v -7.307 z"
     id="path4991"
     inkscape:connector-curvature="0"
     style="fill:#ffffff" />
  <rect
     x="288"
     y="100.403"
     width="24"
     height="24"
     rx="2"
     id="rect4993"
     style="fill:#f2637e" />
  <path
     d="m 300.836,120.804 c -0.511,0.009 -1.018,-0.089 -1.488,-0.288 -0.048,0 -1.12,-0.52 -2.32,-1.248 -1.2,-0.728 -2.152,-1.448 -2.192,-1.48 -0.352,-0.291 -0.647,-0.643 -0.872,-1.04 l 0.688,-0.408 c 0.18,0.305 0.413,0.576 0.688,0.8 0,0 0.952,0.728 2.12,1.432 1.168,0.704 2.232,1.2 2.248,1.208 0.739,0.284 1.557,0.284 2.296,0 0,0 1.08,-0.504 2.248,-1.208 1.168,-0.704 2.112,-1.424 2.12,-1.432 0.622,-0.547 1.033,-1.294 1.16,-2.112 0,0 0.128,-1.232 0.128,-2.64 0,-1.408 -0.12,-2.632 -0.128,-2.64 -0.128,-0.818 -0.538,-1.566 -1.16,-2.112 0,0 -0.952,-0.728 -2.12,-1.432 -1.168,-0.704 -2.288,-1.184 -2.288,-1.184 -0.739,-0.284 -1.557,-0.284 -2.296,0 0,0 -1.08,0.504 -2.24,1.208 -1.16,0.704 -2.096,1.416 -2.104,1.424 -0.275,0.223 -0.508,0.494 -0.688,0.8 l -0.672,-0.392 c 0.229,-0.399 0.53,-0.752 0.888,-1.04 0,0 0.984,-0.752 2.192,-1.48 1.208,-0.728 2.28,-1.224 2.32,-1.248 0.953,-0.381 2.015,-0.381 2.968,0 0.048,0 1.112,0.52 2.32,1.248 1.208,0.728 2.112,1.448 2.184,1.48 0.797,0.68 1.32,1.627 1.472,2.664 0,0.048 0.128,1.272 0.128,2.72 0,1.448 -0.12,2.672 -0.128,2.72 -0.152,1.037 -0.675,1.983 -1.472,2.664 0,0 -0.984,0.752 -2.192,1.48 -1.208,0.728 -2.28,1.224 -2.32,1.248 -0.47,0.199 -0.977,0.297 -1.488,0.288 z"
     id="path4995"
     inkscape:connector-curvature="0"
     style="fill:#ffffff" />
  <path
     d="m 291.564,110.004 h 3.2 v 0.8 h -2.4 v 4 h -0.8 z"
     id="path4997"
     inkscape:connector-curvature="0"
     style="fill:#ffffff" />
  <path
     d="m 297.964,110.804 c 0.317,0 0.626,0.094 0.889,0.27 0.263,0.175 0.468,0.425 0.589,0.718 0.122,0.292 0.153,0.614 0.091,0.924 -0.061,0.31 -0.214,0.596 -0.437,0.819 -0.224,0.224 -0.509,0.376 -0.82,0.438 -0.31,0.062 -0.632,0.03 -0.924,-0.091 -0.292,-0.121 -0.542,-0.326 -0.718,-0.589 -0.176,-0.263 -0.27,-0.573 -0.27,-0.889 0,-0.424 0.169,-0.831 0.469,-1.131 0.3,-0.301 0.707,-0.469 1.131,-0.469 z m 0,-0.8 c -0.474,0 -0.938,0.141 -1.333,0.404 -0.395,0.264 -0.702,0.639 -0.884,1.077 -0.182,0.439 -0.229,0.922 -0.137,1.387 0.093,0.466 0.322,0.893 0.657,1.229 0.336,0.336 0.763,0.564 1.229,0.657 0.466,0.092 0.948,0.045 1.387,-0.137 0.438,-0.181 0.813,-0.489 1.077,-0.884 0.263,-0.394 0.404,-0.858 0.404,-1.333 0,-0.637 -0.253,-1.247 -0.703,-1.697 -0.45,-0.45 -1.06,-0.703 -1.697,-0.703 z"
     id="path4999"
     inkscape:connector-curvature="0"
     style="fill:#ffffff" />
  <path
     d="m 303.564,114.804 c -0.38,-0.001 -0.755,-0.092 -1.094,-0.267 -0.338,-0.174 -0.63,-0.426 -0.852,-0.736 -0.221,-0.309 -0.366,-0.667 -0.422,-1.043 -0.056,-0.377 -0.022,-0.761 0.1,-1.122 0.122,-0.361 0.327,-0.687 0.6,-0.952 0.273,-0.266 0.605,-0.462 0.969,-0.574 0.364,-0.112 0.749,-0.136 1.124,-0.069 0.374,0.066 0.728,0.221 1.031,0.451 l -0.488,0.632 c -0.279,-0.209 -0.619,-0.322 -0.968,-0.32 -0.257,0 -0.51,0.062 -0.738,0.181 -0.229,0.119 -0.425,0.292 -0.572,0.503 -0.147,0.211 -0.241,0.454 -0.275,0.709 -0.033,0.255 -0.004,0.514 0.084,0.756 0.088,0.242 0.234,0.458 0.424,0.632 0.189,0.174 0.418,0.299 0.667,0.365 0.249,0.066 0.509,0.072 0.761,0.015 0.251,-0.056 0.484,-0.171 0.681,-0.337 l 0.512,0.616 c -0.433,0.362 -0.979,0.561 -1.544,0.56 z"
     id="path5001"
     inkscape:connector-curvature="0"
     style="fill:#ffffff" />
  <rect
     x="320"
     y="100.403"
     width="24"
     height="24"
     rx="2"
     id="rect5003"
     style="fill:#f0f5fb" />
  <circle
     cx="327.5"
     cy="112.403"
     r="1.5"
     id="circle5005"
     style="fill:#587ab0" />
  <circle
     cx="332"
     cy="112.403"
     r="1.5"
     id="circle5007"
     style="fill:#587ab0" />
  <circle
     cx="336.5"
     cy="112.403"
     r="1.5"
     id="circle5009"
     style="fill:#587ab0" />
  <rect
     x="320"
     y="136.403"
     width="24"
     height="24"
     rx="2"
     id="rect5011"
     style="fill:#e2ecf8" />
  <circle
     cx="327.5"
     cy="148.403"
     r="1.5"
     id="circle5013"
     style="fill:#587ab0" />
  <circle
     cx="332"
     cy="148.403"
     r="1.5"
     id="circle5015"
     style="fill:#587ab0" />
  <circle
     cx="336.5"
     cy="148.403"
     r="1.5"
     id="circle5017"
     style="fill:#587ab0" />
  <rect
     x="288"
     y="136.403"
     width="24"
     height="24"
     rx="2"
     id="rect5019"
     style="fill:#ee2f53" />
  <path
     d="m 300.836,156.804 c -0.511,0.009 -1.018,-0.089 -1.488,-0.288 -0.048,0 -1.12,-0.52 -2.32,-1.248 -1.2,-0.728 -2.152,-1.448 -2.192,-1.48 -0.352,-0.291 -0.647,-0.643 -0.872,-1.04 l 0.688,-0.408 c 0.18,0.305 0.413,0.576 0.688,0.8 0,0 0.952,0.728 2.12,1.432 1.168,0.704 2.232,1.2 2.248,1.208 0.739,0.284 1.557,0.284 2.296,0 0,0 1.08,-0.504 2.248,-1.208 1.168,-0.704 2.112,-1.424 2.12,-1.432 0.622,-0.547 1.033,-1.294 1.16,-2.112 0,0 0.128,-1.232 0.128,-2.64 0,-1.408 -0.12,-2.632 -0.128,-2.64 -0.128,-0.818 -0.538,-1.566 -1.16,-2.112 0,0 -0.952,-0.728 -2.12,-1.432 -1.168,-0.704 -2.288,-1.184 -2.288,-1.184 -0.739,-0.284 -1.557,-0.284 -2.296,0 0,0 -1.08,0.504 -2.24,1.208 -1.16,0.704 -2.096,1.416 -2.104,1.424 -0.275,0.223 -0.508,0.494 -0.688,0.8 l -0.672,-0.392 c 0.229,-0.399 0.53,-0.752 0.888,-1.04 0,0 0.984,-0.752 2.192,-1.48 1.208,-0.728 2.28,-1.224 2.32,-1.248 0.953,-0.381 2.015,-0.381 2.968,0 0.048,0 1.112,0.52 2.32,1.248 1.208,0.728 2.112,1.448 2.184,1.48 0.797,0.68 1.32,1.627 1.472,2.664 0,0.048 0.128,1.272 0.128,2.72 0,1.448 -0.12,2.672 -0.128,2.72 -0.152,1.037 -0.675,1.983 -1.472,2.664 0,0 -0.984,0.752 -2.192,1.48 -1.208,0.728 -2.28,1.224 -2.32,1.248 -0.47,0.199 -0.977,0.297 -1.488,0.288 z"
     id="path5021"
     inkscape:connector-curvature="0"
     style="fill:#ffffff" />
  <path
     d="m 291.564,146.004 h 3.2 v 0.8 h -2.4 v 4 h -0.8 z"
     id="path5023"
     inkscape:connector-curvature="0"
     style="fill:#ffffff" />
  <path
     d="m 297.964,146.804 c 0.317,0 0.626,0.094 0.889,0.27 0.263,0.175 0.468,0.425 0.589,0.718 0.122,0.292 0.153,0.614 0.091,0.924 -0.061,0.31 -0.214,0.596 -0.437,0.819 -0.224,0.224 -0.509,0.376 -0.82,0.438 -0.31,0.062 -0.632,0.03 -0.924,-0.091 -0.292,-0.121 -0.542,-0.326 -0.718,-0.589 -0.176,-0.263 -0.27,-0.573 -0.27,-0.889 0,-0.424 0.169,-0.831 0.469,-1.131 0.3,-0.301 0.707,-0.469 1.131,-0.469 z m 0,-0.8 c -0.474,0 -0.938,0.141 -1.333,0.404 -0.395,0.264 -0.702,0.639 -0.884,1.077 -0.182,0.439 -0.229,0.922 -0.137,1.387 0.093,0.466 0.322,0.893 0.657,1.229 0.336,0.336 0.763,0.564 1.229,0.657 0.466,0.092 0.948,0.045 1.387,-0.137 0.438,-0.181 0.813,-0.489 1.077,-0.884 0.263,-0.394 0.404,-0.858 0.404,-1.333 0,-0.637 -0.253,-1.247 -0.703,-1.697 -0.45,-0.45 -1.06,-0.703 -1.697,-0.703 z"
     id="path5025"
     inkscape:connector-curvature="0"
     style="fill:#ffffff" />
  <path
     d="m 303.564,150.804 c -0.38,-0.001 -0.755,-0.092 -1.094,-0.267 -0.338,-0.174 -0.63,-0.426 -0.852,-0.736 -0.221,-0.309 -0.366,-0.667 -0.422,-1.043 -0.056,-0.377 -0.022,-0.761 0.1,-1.122 0.122,-0.361 0.327,-0.687 0.6,-0.952 0.273,-0.266 0.605,-0.462 0.969,-0.574 0.364,-0.112 0.749,-0.136 1.124,-0.069 0.374,0.066 0.728,0.221 1.031,0.451 l -0.488,0.632 c -0.279,-0.209 -0.619,-0.322 -0.968,-0.32 -0.257,0 -0.51,0.062 -0.738,0.181 -0.229,0.119 -0.425,0.292 -0.572,0.503 -0.147,0.211 -0.241,0.454 -0.275,0.709 -0.033,0.255 -0.004,0.514 0.084,0.756 0.088,0.242 0.234,0.458 0.424,0.632 0.189,0.174 0.418,0.299 0.667,0.365 0.249,0.066 0.509,0.072 0.761,0.015 0.251,-0.056 0.484,-0.171 0.681,-0.337 l 0.512,0.616 c -0.433,0.362 -0.979,0.561 -1.544,0.56 z"
     id="path5027"
     inkscape:connector-curvature="0"
     style="fill:#ffffff" />
  <rect
     x="256"
     y="100.403"
     width="24"
     height="24"
     rx="2"
     id="rect5029"
     style="fill:#3377c9" />
  <path
     d="m 273.039,107.364 c -1.561,-1.56 -4.1,-1.56 -5.66,0 -1.066,1.066 -1.436,2.637 -0.975,4.062 l -4.507,4.508 c -0.068,0.068 -0.107,0.16 -0.107,0.257 v 2.058 c 0,0.201 0.163,0.364 0.364,0.364 h 2.058 c 0.097,0 0.189,-0.038 0.258,-0.107 l 0.514,-0.514 c 0.079,-0.079 0.117,-0.189 0.104,-0.3 l -0.064,-0.553 0.766,-0.072 c 0.174,-0.016 0.312,-0.154 0.328,-0.328 l 0.072,-0.766 0.553,0.065 c 0.103,0.013 0.206,-0.021 0.284,-0.09 0.078,-0.069 0.122,-0.168 0.122,-0.272 v -0.677 h 0.665 c 0.097,0 0.189,-0.039 0.257,-0.107 l 0.934,-0.92 c 1.424,0.461 2.968,0.119 4.034,-0.948 1.561,-1.56 1.561,-4.099 0,-5.66 z m -1.029,2.573 c -0.426,0.426 -1.118,0.426 -1.544,0 -0.425,-0.426 -0.425,-1.118 0,-1.543 0.426,-0.426 1.118,-0.426 1.544,0 0.425,0.425 0.425,1.117 0,1.543 z"
     id="path5031"
     inkscape:connector-curvature="0"
     style="fill:#ffffff" />
  <rect
     x="256"
     y="136.403"
     width="24"
     height="24"
     rx="2"
     id="rect5033"
     style="fill:#0055bb" />
  <path
     d="m 273.039,143.364 c -1.561,-1.56 -4.1,-1.56 -5.66,0 -1.066,1.066 -1.436,2.637 -0.975,4.062 l -4.507,4.508 c -0.068,0.068 -0.107,0.16 -0.107,0.257 v 2.058 c 0,0.201 0.163,0.364 0.364,0.364 h 2.058 c 0.097,0 0.189,-0.038 0.258,-0.107 l 0.514,-0.514 c 0.079,-0.079 0.117,-0.189 0.104,-0.3 l -0.064,-0.553 0.766,-0.072 c 0.174,-0.016 0.312,-0.154 0.328,-0.328 l 0.072,-0.766 0.553,0.065 c 0.103,0.013 0.206,-0.021 0.284,-0.09 0.078,-0.069 0.122,-0.168 0.122,-0.272 v -0.677 h 0.665 c 0.097,0 0.189,-0.039 0.257,-0.107 l 0.934,-0.92 c 1.424,0.461 2.968,0.119 4.034,-0.948 1.561,-1.56 1.561,-4.099 0,-5.66 z m -1.029,2.573 c -0.426,0.426 -1.118,0.426 -1.544,0 -0.425,-0.426 -0.425,-1.118 0,-1.543 0.426,-0.426 1.118,-0.426 1.544,0 0.425,0.425 0.425,1.117 0,1.543 z"
     id="path5035"
     inkscape:connector-curvature="0"
     style="fill:#ffffff" />
  <rect
     x="48"
     y="184.403"
     width="16"
     height="16"
     rx="2"
     id="rect5037"
     style="fill:#7191b4" />
  <path
     d="m 55.8908,195.458 h 0.6077 c 0,0 0.1836,-0.02 0.2773,-0.121 0.0863,-0.093 0.0835,-0.267 0.0835,-0.267 0,0 -0.0118,-0.816 0.3666,-0.936 0.3731,-0.118 0.8522,0.788 1.36,1.137 0.3839,0.264 0.6757,0.206 0.6757,0.206 l 1.3578,-0.019 c 0,0 0.7102,-0.044 0.3735,-0.602 -0.0276,-0.046 -0.1962,-0.413 -1.0095,-1.168 -0.8514,-0.791 -0.7374,-0.663 0.2882,-2.03 0.6245,-0.832 0.8742,-1.34 0.7962,-1.558 -0.0744,-0.207 -0.5337,-0.152 -0.5337,-0.152 l -1.5288,0.009 c 0,0 -0.1133,-0.015 -0.1974,0.035 -0.0821,0.049 -0.1349,0.164 -0.1349,0.164 0,0 -0.242,0.644 -0.5647,1.192 -0.6807,1.156 -0.9529,1.217 -1.0642,1.145 -0.2588,-0.167 -0.1942,-0.672 -0.1942,-1.03 0,-1.121 0.1699,-1.588 -0.3308,-1.709 -0.1662,-0.04 -0.2885,-0.066 -0.7135,-0.071 -0.5454,-0.005 -1.0071,0.002 -1.2685,0.13 -0.1739,0.085 -0.3081,0.275 -0.2264,0.286 0.101,0.014 0.3299,0.062 0.4512,0.227 0.1567,0.213 0.1511,0.692 0.1511,0.692 0,0 0.09,1.318 -0.2102,1.482 -0.206,0.113 -0.4887,-0.117 -1.0956,-1.166 -0.311,-0.537 -0.5457,-1.13 -0.5457,-1.13 0,0 -0.0453,-0.111 -0.1261,-0.171 -0.098,-0.072 -0.2349,-0.095 -0.2349,-0.095 l -1.4527,0.01 c 0,0 -0.2181,0.006 -0.2981,0.101 -0.0712,0.084 -0.0057,0.259 -0.0057,0.259 0,0 1.1374,2.66 2.4251,4.001 1.1808,1.23 2.5217,1.149 2.5217,1.149 z"
     id="path5039"
     inkscape:connector-curvature="0"
     style="clip-rule:evenodd;fill:#ffffff;fill-rule:evenodd" />
  <rect
     x="48"
     y="212.403"
     width="16"
     height="16"
     rx="2"
     id="rect5041"
     style="fill:#4d76a1" />
  <path
     d="m 55.8908,223.458 h 0.6077 c 0,0 0.1836,-0.02 0.2773,-0.121 0.0863,-0.093 0.0835,-0.267 0.0835,-0.267 0,0 -0.0118,-0.816 0.3666,-0.936 0.3731,-0.118 0.8522,0.788 1.36,1.137 0.3839,0.264 0.6757,0.206 0.6757,0.206 l 1.3578,-0.019 c 0,0 0.7102,-0.044 0.3735,-0.602 -0.0276,-0.046 -0.1962,-0.413 -1.0095,-1.168 -0.8514,-0.791 -0.7374,-0.663 0.2882,-2.03 0.6245,-0.832 0.8742,-1.34 0.7962,-1.558 -0.0744,-0.207 -0.5337,-0.152 -0.5337,-0.152 l -1.5288,0.009 c 0,0 -0.1133,-0.015 -0.1974,0.035 -0.0821,0.049 -0.1349,0.164 -0.1349,0.164 0,0 -0.242,0.644 -0.5647,1.192 -0.6807,1.156 -0.9529,1.217 -1.0642,1.145 -0.2588,-0.167 -0.1942,-0.672 -0.1942,-1.03 0,-1.121 0.1699,-1.588 -0.3308,-1.709 -0.1662,-0.04 -0.2885,-0.066 -0.7135,-0.071 -0.5454,-0.005 -1.0071,0.002 -1.2685,0.13 -0.1739,0.085 -0.3081,0.275 -0.2264,0.286 0.101,0.014 0.3299,0.062 0.4512,0.227 0.1567,0.213 0.1511,0.692 0.1511,0.692 0,0 0.09,1.318 -0.2102,1.482 -0.206,0.113 -0.4887,-0.117 -1.0956,-1.166 -0.311,-0.537 -0.5457,-1.13 -0.5457,-1.13 0,0 -0.0453,-0.111 -0.1261,-0.171 -0.098,-0.072 -0.2349,-0.095 -0.2349,-0.095 l -1.4527,0.01 c 0,0 -0.2181,0.006 -0.2981,0.101 -0.0712,0.084 -0.0057,0.259 -0.0057,0.259 0,0 1.1374,2.66 2.4251,4.001 1.1808,1.23 2.5217,1.149 2.5217,1.149 z"
     id="path5043"
     inkscape:connector-curvature="0"
     style="clip-rule:evenodd;fill:#ffffff;fill-rule:evenodd" />
  <rect
     x="24"
     y="184.403"
     width="16"
     height="16"
     rx="2"
     id="rect5045"
     style="fill:#627aad" />
  <path
     d="m 33.9206,192.382 h -1.2391 v 4.539 H 30.804 v -4.539 h -0.8929 v -1.596 h 0.8929 v -1.032 c 0,-0.739 0.3507,-1.895 1.8942,-1.895 l 1.3907,0.006 v 1.549 h -1.0091 c -0.1655,0 -0.3982,0.083 -0.3982,0.435 v 0.939 h 1.403 z"
     id="path5047"
     inkscape:connector-curvature="0"
     style="fill:#ffffff" />
  <rect
     x="24"
     y="212.403"
     width="16"
     height="16"
     rx="2"
     id="rect5049"
     style="fill:#3b5998" />
  <path
     d="m 33.9206,220.382 h -1.2391 v 4.539 H 30.804 v -4.539 h -0.8929 v -1.596 h 0.8929 v -1.032 c 0,-0.739 0.3507,-1.895 1.8942,-1.895 l 1.3907,0.006 v 1.549 h -1.0091 c -0.1655,0 -0.3982,0.083 -0.3982,0.435 v 0.939 h 1.403 z"
     id="path5051"
     inkscape:connector-curvature="0"
     style="fill:#ffffff" />
  <rect
     x="72"
     y="184.403"
     width="16"
     height="16"
     rx="2"
     id="rect5053"
     style="fill:#e37167" />
  <path
     d="m 77.5798,193.31 -0.3026,1.13 -1.1061,0.023 c -0.3305,-0.613 -0.518,-1.314 -0.518,-2.06 0,-0.72 0.1753,-1.4 0.486,-1.999 h 3e-4 l 0.9847,0.181 0.4313,0.979 c -0.0903,0.263 -0.1395,0.545 -0.1395,0.839 1e-4,0.319 0.0579,0.625 0.1639,0.907 z"
     id="path5055"
     inkscape:connector-curvature="0"
     style="fill:#ffffff" />
  <path
     d="m 84.2708,191.591 c 0.05,0.263 0.076,0.535 0.076,0.812 0,0.312 -0.0327,0.615 -0.0951,0.908 -0.2116,0.996 -0.7645,1.866 -1.5304,2.482 h -3e-4 l -1.2403,-0.063 -0.1755,-1.096 c 0.5082,-0.298 0.9054,-0.765 1.1147,-1.323 h -2.3244 v -1.72 h 2.3583 z"
     id="path5057"
     inkscape:connector-curvature="0"
     style="fill:#ffffff" />
  <path
     d="m 82.7211,195.793 2e-4,0.001 c -0.7449,0.598 -1.6912,0.957 -2.7213,0.957 -1.6554,0 -3.0947,-0.926 -3.8289,-2.287 l 1.4087,-1.153 c 0.3671,0.979 1.3122,1.677 2.4202,1.677 0.4762,0 0.9224,-0.129 1.3052,-0.354 z"
     id="path5059"
     inkscape:connector-curvature="0"
     style="fill:#ffffff" />
  <path
     d="m 82.7744,189.057 -1.4082,1.153 c -0.3963,-0.247 -0.8646,-0.39 -1.3664,-0.39 -1.1331,0 -2.0959,0.729 -2.4446,1.744 l -1.416,-1.16 h -3e-4 c 0.7235,-1.394 2.1809,-2.347 3.8609,-2.347 1.0547,0 2.0218,0.375 2.7746,1 z"
     id="path5061"
     inkscape:connector-curvature="0"
     style="fill:#ffffff" />
  <rect
     x="72"
     y="212.403"
     width="16"
     height="16"
     rx="2"
     id="rect5063"
     style="fill:#dc4e41" />
  <path
     d="m 77.5798,221.31 -0.3026,1.13 -1.1061,0.023 c -0.3305,-0.613 -0.518,-1.314 -0.518,-2.06 0,-0.72 0.1753,-1.4 0.486,-1.999 h 3e-4 l 0.9847,0.181 0.4313,0.979 c -0.0903,0.263 -0.1395,0.545 -0.1395,0.839 1e-4,0.319 0.0579,0.625 0.1639,0.907 z"
     id="path5065"
     inkscape:connector-curvature="0"
     style="fill:#ffffff" />
  <path
     d="m 84.2708,219.591 c 0.05,0.263 0.076,0.535 0.076,0.812 0,0.312 -0.0327,0.615 -0.0951,0.908 -0.2116,0.996 -0.7645,1.866 -1.5304,2.482 h -3e-4 l -1.2403,-0.063 -0.1755,-1.096 c 0.5082,-0.298 0.9054,-0.765 1.1147,-1.323 h -2.3244 v -1.72 h 2.3583 z"
     id="path5067"
     inkscape:connector-curvature="0"
     style="fill:#ffffff" />
  <path
     d="m 82.7211,223.793 2e-4,0.001 c -0.7449,0.598 -1.6912,0.957 -2.7213,0.957 -1.6554,0 -3.0947,-0.926 -3.8289,-2.287 l 1.4087,-1.153 c 0.3671,0.979 1.3122,1.677 2.4202,1.677 0.4762,0 0.9224,-0.129 1.3052,-0.354 z"
     id="path5069"
     inkscape:connector-curvature="0"
     style="fill:#ffffff" />
  <path
     d="m 82.7744,217.057 -1.4082,1.153 c -0.3963,-0.247 -0.8646,-0.39 -1.3664,-0.39 -1.1331,0 -2.0959,0.729 -2.4446,1.744 l -1.416,-1.16 h -3e-4 c 0.7235,-1.394 2.1809,-2.347 3.8609,-2.347 1.0547,0 2.0218,0.375 2.7746,1 z"
     id="path5071"
     inkscape:connector-curvature="0"
     style="fill:#ffffff" />
  <rect
     y="184.403"
     width="16"
     height="16"
     rx="2"
     id="rect5073"
     x="0"
     style="fill:#666666" />
  <path
     d="m 10.5922,192.165 c -0.0044,-0.753 0.3366,-1.32 1.0252,-1.738 -0.3852,-0.552 -0.9678,-0.856 -1.73591,-0.914 -0.72724,-0.057 -1.52289,0.424 -1.81423,0.424 -0.30788,0 -1.01194,-0.404 -1.56592,-0.404 -1.14327,0.017 -2.35827,0.911 -2.35827,2.73 0,0.537 0.09821,1.092 0.29464,1.664 0.26265,0.753 1.20948,2.597 2.19716,2.567 0.51645,-0.012 0.88173,-0.366 1.55378,-0.366 0.6522,0 0.98988,0.366 1.56593,0.366 0.99652,-0.014 1.85282,-1.691 2.10222,-2.445 -1.3364,-0.631 -1.2646,-1.846 -1.2646,-1.884 z m -1.15985,-3.366 c 0.55949,-0.664 0.50873,-1.269 0.49218,-1.487 -0.49439,0.029 -1.06603,0.337 -1.39157,0.716 -0.35865,0.406 -0.56943,0.908 -0.52418,1.474 0.53411,0.041 1.02188,-0.234 1.42357,-0.703 z"
     id="path5075"
     inkscape:connector-curvature="0"
     style="fill:#ffffff" />
  <rect
     y="212.403"
     width="16"
     height="16"
     rx="2"
     id="rect5077"
     x="0"
     style="fill:#000000" />
  <path
     d="m 10.5922,220.165 c -0.0044,-0.753 0.3366,-1.32 1.0252,-1.738 -0.3852,-0.552 -0.9678,-0.856 -1.73591,-0.914 -0.72724,-0.057 -1.52289,0.424 -1.81423,0.424 -0.30788,0 -1.01194,-0.404 -1.56592,-0.404 -1.14327,0.017 -2.35827,0.911 -2.35827,2.73 0,0.537 0.09821,1.092 0.29464,1.664 0.26265,0.753 1.20948,2.597 2.19716,2.567 0.51645,-0.012 0.88173,-0.366 1.55378,-0.366 0.6522,0 0.98988,0.366 1.56593,0.366 0.99652,-0.014 1.85282,-1.691 2.10222,-2.445 -1.3364,-0.631 -1.2646,-1.846 -1.2646,-1.884 z m -1.15985,-3.366 c 0.55949,-0.664 0.50873,-1.269 0.49218,-1.487 -0.49439,0.029 -1.06603,0.337 -1.39157,0.716 -0.35865,0.406 -0.56943,0.908 -0.52418,1.474 0.53411,0.041 1.02188,-0.234 1.42357,-0.703 z"
     id="path5079"
     inkscape:connector-curvature="0"
     style="fill:#ffffff" />
  <rect
     x="96"
     y="184.403"
     width="16"
     height="16"
     rx="2"
     id="rect5081"
     style="fill:#d75533" />
  <path
     d="m 102.58,196.987 1.607,-3.432 h 0.711 v 3.432 h 1.009 v -9.195 h -1.787 c -1.138,0 -2.493,1.156 -2.493,3.035 0,1.879 1.701,2.638 1.701,2.638 l -2.019,3.522 z m 0.623,-4.695 c -0.248,-0.302 -0.464,-0.803 -0.464,-1.636 0,-1.825 1.085,-2.061 1.235,-2.085 0.011,-0.001 0.021,-0.002 0.032,-0.002 h 0.864 v 4.173 h -0.672 c -0.384,0 -0.755,-0.16 -0.995,-0.45 z"
     id="path5083"
     inkscape:connector-curvature="0"
     style="fill:#ffffff" />
  <rect
     x="96"
     y="212.403"
     width="16"
     height="16"
     rx="2"
     id="rect5085"
     style="fill:#cd2a00" />
  <path
     d="m 102.58,224.987 1.607,-3.432 h 0.711 v 3.432 h 1.009 v -9.195 h -1.787 c -1.138,0 -2.493,1.156 -2.493,3.035 0,1.879 1.701,2.638 1.701,2.638 l -2.019,3.522 z m 0.623,-4.695 c -0.248,-0.302 -0.464,-0.803 -0.464,-1.636 0,-1.825 1.085,-2.061 1.235,-2.085 0.011,-0.001 0.021,-0.002 0.032,-0.002 h 0.864 v 4.173 h -0.672 c -0.384,0 -0.755,-0.16 -0.995,-0.45 z"
     id="path5087"
     inkscape:connector-curvature="0"
     style="fill:#ffffff" />
  <rect
     x="144"
     y="184.403"
     width="16"
     height="16"
     rx="2"
     id="rect5089"
     style="fill:#f68f49" />
  <path
     d="m 154.689,192.727 c 0.226,0.445 -0.031,0.658 -0.617,1.021 -0.499,0.309 -1.188,0.421 -1.63,0.466 l 0.37,0.357 c 0.526,0.501 1.025,0.985 1.373,1.321 0.508,0.486 -0.309,1.267 -0.816,0.791 l -1.373,-1.324 c -0.526,0.505 -1.03,0.99 -1.373,1.326 -0.508,0.478 -1.324,-0.296 -0.822,-0.791 l 1.373,-1.321 0.376,-0.357 c -0.448,-0.045 -1.127,-0.164 -1.62,-0.466 h 0.001 c -0.587,-0.365 -0.844,-0.578 -0.621,-1.023 0.135,-0.253 0.498,-0.464 0.982,-0.098 0,0 0.654,0.5 1.707,0.5 1.055,0 1.708,-0.5 1.708,-0.5 0.484,-0.368 0.849,-0.155 0.982,0.098 z"
     id="path5091"
     inkscape:connector-curvature="0"
     style="fill:#ffffff" />
  <path
     d="m 152,192.454 c -1.284,0 -2.333,-1.004 -2.333,-2.24 0,-1.241 1.049,-2.245 2.333,-2.245 1.285,0 2.334,1.004 2.334,2.245 0,1.236 -1.049,2.24 -2.334,2.24 z m 0,-3.348 c -0.631,0 -1.146,0.495 -1.146,1.108 0,0.607 0.515,1.102 1.146,1.102 0.632,0 1.147,-0.495 1.147,-1.102 0,-0.613 -0.515,-1.108 -1.147,-1.108 z"
     id="path5093"
     inkscape:connector-curvature="0"
     style="fill:#ffffff" />
  <rect
     x="144"
     y="212.403"
     width="16"
     height="16"
     rx="2"
     id="rect5095"
     style="fill:#f4731c" />
  <path
     d="m 154.689,220.727 c 0.226,0.445 -0.031,0.658 -0.617,1.021 -0.499,0.309 -1.188,0.421 -1.63,0.466 l 0.37,0.357 c 0.526,0.501 1.025,0.985 1.373,1.321 0.508,0.486 -0.309,1.267 -0.816,0.791 l -1.373,-1.324 c -0.526,0.505 -1.03,0.99 -1.373,1.326 -0.508,0.478 -1.324,-0.296 -0.822,-0.791 l 1.373,-1.321 0.376,-0.357 c -0.448,-0.045 -1.127,-0.164 -1.62,-0.466 h 0.001 c -0.587,-0.365 -0.844,-0.578 -0.621,-1.023 0.135,-0.253 0.498,-0.464 0.982,-0.098 0,0 0.654,0.5 1.707,0.5 1.055,0 1.708,-0.5 1.708,-0.5 0.484,-0.368 0.849,-0.155 0.982,0.098 z"
     id="path5097"
     inkscape:connector-curvature="0"
     style="fill:#ffffff" />
  <path
     d="m 152,220.454 c -1.284,0 -2.333,-1.004 -2.333,-2.24 0,-1.241 1.049,-2.245 2.333,-2.245 1.285,0 2.334,1.004 2.334,2.245 0,1.236 -1.049,2.24 -2.334,2.24 z m 0,-3.348 c -0.631,0 -1.146,0.495 -1.146,1.108 0,0.607 0.515,1.102 1.146,1.102 0.632,0 1.147,-0.495 1.147,-1.102 0,-0.613 -0.515,-1.108 -1.147,-1.108 z"
     id="path5099"
     inkscape:connector-curvature="0"
     style="fill:#ffffff" />
  <rect
     x="120"
     y="184.403"
     width="16"
     height="16"
     rx="2"
     id="rect5101"
     style="fill:#ffb133" />
  <path
     d="m 129.37,192.403 c 0,0.755 -0.614,1.37 -1.37,1.37 -0.755,0 -1.369,-0.615 -1.369,-1.37 0,-0.755 0.614,-1.369 1.369,-1.369 0.756,0 1.37,0.614 1.37,1.369 z M 128,187.851 c -2.51,0 -4.552,2.042 -4.552,4.552 0,2.51 2.042,4.553 4.552,4.553 0.92,0 1.807,-0.274 2.565,-0.792 l 0.013,-0.009 -0.613,-0.713 -0.011,0.007 c -0.583,0.375 -1.259,0.574 -1.954,0.574 -1.995,0 -3.619,-1.624 -3.619,-3.62 0,-1.996 1.624,-3.619 3.619,-3.619 1.996,0 3.62,1.623 3.62,3.619 0,0.259 -0.029,0.521 -0.086,0.778 -0.114,0.47 -0.443,0.614 -0.69,0.595 -0.248,-0.02 -0.539,-0.197 -0.541,-0.63 v -0.33 -0.413 c 0,-1.27 -1.033,-2.303 -2.303,-2.303 -1.27,0 -2.302,1.033 -2.302,2.303 0,1.27 1.032,2.303 2.302,2.303 0.617,0 1.196,-0.241 1.632,-0.68 0.253,0.395 0.667,0.642 1.137,0.68 0.041,0.003 0.082,0.005 0.123,0.005 0.331,0 0.659,-0.111 0.924,-0.312 0.273,-0.207 0.476,-0.506 0.589,-0.866 0.018,-0.058 0.051,-0.192 0.051,-0.193 l 0.001,-0.004 c 0.066,-0.289 0.096,-0.577 0.096,-0.933 0,-2.51 -2.042,-4.552 -4.553,-4.552 z"
     id="path5103"
     inkscape:connector-curvature="0"
     style="fill:#ffffff" />
  <rect
     x="120"
     y="212.403"
     width="16"
     height="16"
     rx="2"
     id="rect5105"
     style="fill:#ff9e00" />
  <path
     d="m 129.37,220.403 c 0,0.755 -0.614,1.37 -1.37,1.37 -0.755,0 -1.369,-0.615 -1.369,-1.37 0,-0.755 0.614,-1.369 1.369,-1.369 0.756,0 1.37,0.614 1.37,1.369 z M 128,215.851 c -2.51,0 -4.552,2.042 -4.552,4.552 0,2.51 2.042,4.553 4.552,4.553 0.92,0 1.807,-0.274 2.565,-0.792 l 0.013,-0.009 -0.613,-0.713 -0.011,0.007 c -0.583,0.375 -1.259,0.574 -1.954,0.574 -1.995,0 -3.619,-1.624 -3.619,-3.62 0,-1.996 1.624,-3.619 3.619,-3.619 1.996,0 3.62,1.623 3.62,3.619 0,0.259 -0.029,0.521 -0.086,0.778 -0.114,0.47 -0.443,0.614 -0.69,0.595 -0.248,-0.02 -0.539,-0.197 -0.541,-0.63 v -0.33 -0.413 c 0,-1.27 -1.033,-2.303 -2.303,-2.303 -1.27,0 -2.302,1.033 -2.302,2.303 0,1.27 1.032,2.303 2.302,2.303 0.617,0 1.196,-0.241 1.632,-0.68 0.253,0.395 0.667,0.642 1.137,0.68 0.041,0.003 0.082,0.005 0.123,0.005 0.331,0 0.659,-0.111 0.924,-0.312 0.273,-0.207 0.476,-0.506 0.589,-0.866 0.018,-0.058 0.051,-0.192 0.051,-0.193 l 0.001,-0.004 c 0.066,-0.289 0.096,-0.577 0.096,-0.933 0,-2.51 -2.042,-4.552 -4.553,-4.552 z"
     id="path5107"
     inkscape:connector-curvature="0"
     style="fill:#ffffff" />
  <rect
     x="168"
     y="184.403"
     width="16"
     height="16"
     rx="2"
     id="rect5109"
     style="fill:#d64e4e" />
  <path
     d="m 175.103,195.652 h -1.511 c -0.594,0 -1.08,-0.476 -1.08,-1.066 v -6.145 c 0,-0.098 0.08,-0.177 0.177,-0.177 h 6.621 c 0.098,0 0.178,0.079 0.178,0.177 v 6.145 c 0,0.59 -0.486,1.066 -1.08,1.066 h -0.681 c -0.636,0 -1.014,0.171 -1.539,0.705 -0.207,0.198 -0.375,0.37 -0.504,0.515 -0.13,0.145 -0.24,0.275 -0.331,0.391 -0.065,0.073 -0.102,0.089 -0.148,0.089 -0.047,0 -0.102,-0.016 -0.102,-0.089 z m -1.461,-6.259 v 4.872 c 0,0.139 0.117,0.255 0.265,0.255 h 1.987 v 0.62 c 0.495,-0.445 0.958,-0.62 1.607,-0.62 h 0.592 c 0.148,0 0.265,-0.116 0.265,-0.255 v -4.872 z"
     id="path5111"
     inkscape:connector-curvature="0"
     style="fill:#ffffff" />
  <rect
     x="168"
     y="212.403"
     width="16"
     height="16"
     rx="2"
     id="rect5113"
     style="fill:#cc2222" />
  <path
     d="m 175.103,223.652 h -1.511 c -0.594,0 -1.08,-0.476 -1.08,-1.066 v -6.145 c 0,-0.098 0.08,-0.177 0.177,-0.177 h 6.621 c 0.098,0 0.178,0.079 0.178,0.177 v 6.145 c 0,0.59 -0.486,1.066 -1.08,1.066 h -0.681 c -0.636,0 -1.014,0.171 -1.539,0.705 -0.207,0.198 -0.375,0.37 -0.504,0.515 -0.13,0.145 -0.24,0.275 -0.331,0.391 -0.065,0.073 -0.102,0.089 -0.148,0.089 -0.047,0 -0.102,-0.016 -0.102,-0.089 z m -1.461,-6.259 v 4.872 c 0,0.139 0.117,0.255 0.265,0.255 h 1.987 v 0.62 c 0.495,-0.445 0.958,-0.62 1.607,-0.62 h 0.592 c 0.148,0 0.265,-0.116 0.265,-0.255 v -4.872 z"
     id="path5115"
     inkscape:connector-curvature="0"
     style="fill:#ffffff" />
  <rect
     x="216"
     y="184.403"
     width="16"
     height="16"
     rx="2"
     id="rect5117"
     style="fill:#f2637e" />
  <path
     d="m 224.558,198.003 c -0.341,0.007 -0.679,-0.059 -0.992,-0.192 -0.032,0 -0.747,-0.346 -1.547,-0.832 -0.8,-0.485 -1.435,-0.965 -1.461,-0.986 -0.235,-0.194 -0.432,-0.429 -0.582,-0.694 l 0.459,-0.272 c 0.12,0.204 0.275,0.385 0.459,0.534 0,0 0.634,0.485 1.413,0.954 0.779,0.47 1.488,0.8 1.499,0.806 0.492,0.189 1.038,0.189 1.53,0 0,0 0.72,-0.336 1.499,-0.806 0.779,-0.469 1.408,-0.949 1.413,-0.954 0.415,-0.364 0.689,-0.863 0.774,-1.408 0,0 0.085,-0.822 0.085,-1.76 0,-0.939 -0.08,-1.755 -0.085,-1.76 -0.086,-0.545 -0.359,-1.044 -0.774,-1.408 0,0 -0.634,-0.486 -1.413,-0.955 -0.779,-0.469 -1.525,-0.789 -1.525,-0.789 -0.493,-0.19 -1.038,-0.19 -1.531,0 0,0 -0.72,0.336 -1.493,0.805 -0.774,0.469 -1.398,0.944 -1.403,0.949 -0.184,0.149 -0.339,0.33 -0.459,0.534 l -0.448,-0.262 c 0.153,-0.265 0.354,-0.5 0.592,-0.693 0,0 0.656,-0.501 1.462,-0.987 0.805,-0.485 1.52,-0.816 1.546,-0.832 0.635,-0.253 1.344,-0.253 1.979,0 0.032,0 0.741,0.347 1.547,0.832 0.805,0.486 1.408,0.966 1.456,0.987 0.531,0.454 0.88,1.085 0.981,1.776 0,0.032 0.085,0.848 0.085,1.813 0,0.966 -0.08,1.782 -0.085,1.814 -0.101,0.691 -0.45,1.322 -0.981,1.776 0,0 -0.656,0.501 -1.462,0.986 -0.805,0.486 -1.52,0.816 -1.546,0.832 -0.314,0.133 -0.652,0.199 -0.992,0.192 z"
     id="path5119"
     inkscape:connector-curvature="0"
     style="fill:#ffffff" />
  <path
     d="m 218.376,190.804 h 2.134 v 0.533 h -1.6 v 2.667 h -0.534 z"
     id="path5121"
     inkscape:connector-curvature="0"
     style="fill:#ffffff" />
  <path
     d="m 222.643,191.337 c 0.211,0 0.417,0.063 0.593,0.18 0.175,0.117 0.312,0.284 0.393,0.479 0.08,0.194 0.102,0.409 0.06,0.616 -0.041,0.207 -0.142,0.397 -0.292,0.546 -0.149,0.149 -0.339,0.251 -0.546,0.292 -0.207,0.041 -0.421,0.02 -0.616,-0.061 -0.195,-0.081 -0.361,-0.217 -0.479,-0.393 -0.117,-0.175 -0.179,-0.381 -0.179,-0.592 0,-0.283 0.112,-0.554 0.312,-0.755 0.2,-0.2 0.471,-0.312 0.754,-0.312 z m 0,-0.533 c -0.316,0 -0.626,0.094 -0.889,0.269 -0.263,0.176 -0.468,0.426 -0.589,0.718 -0.121,0.293 -0.153,0.614 -0.091,0.925 0.062,0.31 0.214,0.595 0.438,0.819 0.224,0.224 0.509,0.376 0.819,0.438 0.31,0.062 0.632,0.03 0.925,-0.091 0.292,-0.121 0.542,-0.326 0.718,-0.589 0.175,-0.263 0.269,-0.573 0.269,-0.889 0,-0.425 -0.168,-0.832 -0.468,-1.132 -0.3,-0.3 -0.707,-0.468 -1.132,-0.468 z"
     id="path5123"
     inkscape:connector-curvature="0"
     style="fill:#ffffff" />
  <path
     d="m 226.376,194.004 c -0.253,-0.001 -0.503,-0.062 -0.729,-0.178 -0.225,-0.116 -0.42,-0.284 -0.568,-0.491 -0.148,-0.206 -0.244,-0.445 -0.282,-0.696 -0.037,-0.25 -0.014,-0.507 0.067,-0.747 0.081,-0.241 0.218,-0.458 0.4,-0.635 0.182,-0.177 0.404,-0.308 0.646,-0.383 0.243,-0.074 0.5,-0.09 0.749,-0.046 0.25,0.045 0.486,0.148 0.688,0.301 l -0.325,0.421 c -0.186,-0.139 -0.413,-0.214 -0.646,-0.213 -0.171,0 -0.34,0.042 -0.492,0.121 -0.152,0.079 -0.283,0.194 -0.381,0.335 -0.098,0.14 -0.161,0.303 -0.183,0.473 -0.022,0.17 -0.003,0.343 0.056,0.504 0.058,0.161 0.155,0.305 0.282,0.421 0.127,0.116 0.279,0.199 0.445,0.243 0.166,0.045 0.34,0.048 0.507,0.011 0.167,-0.038 0.323,-0.115 0.454,-0.225 l 0.342,0.41 c -0.289,0.242 -0.653,0.374 -1.03,0.374 z"
     id="path5125"
     inkscape:connector-curvature="0"
     style="fill:#ffffff" />
  <rect
     x="240"
     y="184.403"
     width="16"
     height="16"
     rx="2"
     id="rect5127"
     style="fill:#f0f5fb" />
  <circle
     cx="245"
     cy="192.403"
     r="1"
     id="circle5129"
     style="fill:#587ab0" />
  <circle
     cx="248"
     cy="192.403"
     r="1"
     id="circle5131"
     style="fill:#587ab0" />
  <circle
     cx="251"
     cy="192.403"
     r="1"
     id="circle5133"
     style="fill:#587ab0" />
  <rect
     x="240"
     y="212.403"
     width="16"
     height="16"
     rx="2"
     id="rect5135"
     style="fill:#e2ecf8" />
  <circle
     cx="245"
     cy="220.403"
     r="1"
     id="circle5137"
     style="fill:#587ab0" />
  <circle
     cx="248"
     cy="220.403"
     r="1"
     id="circle5139"
     style="fill:#587ab0" />
  <circle
     cx="251"
     cy="220.403"
     r="1"
     id="circle5141"
     style="fill:#587ab0" />
  <rect
     x="216"
     y="212.403"
     width="16"
     height="16"
     rx="2"
     id="rect5143"
     style="fill:#ee2f53" />
  <path
     d="m 224.558,226.003 c -0.341,0.007 -0.679,-0.059 -0.992,-0.192 -0.032,0 -0.747,-0.346 -1.547,-0.832 -0.8,-0.485 -1.435,-0.965 -1.461,-0.986 -0.235,-0.194 -0.432,-0.429 -0.582,-0.694 l 0.459,-0.272 c 0.12,0.204 0.275,0.385 0.459,0.534 0,0 0.634,0.485 1.413,0.954 0.779,0.47 1.488,0.8 1.499,0.806 0.492,0.189 1.038,0.189 1.53,0 0,0 0.72,-0.336 1.499,-0.806 0.779,-0.469 1.408,-0.949 1.413,-0.954 0.415,-0.364 0.689,-0.863 0.774,-1.408 0,0 0.085,-0.822 0.085,-1.76 0,-0.939 -0.08,-1.755 -0.085,-1.76 -0.086,-0.545 -0.359,-1.044 -0.774,-1.408 0,0 -0.634,-0.486 -1.413,-0.955 -0.779,-0.469 -1.525,-0.789 -1.525,-0.789 -0.493,-0.19 -1.038,-0.19 -1.531,0 0,0 -0.72,0.336 -1.493,0.805 -0.774,0.469 -1.398,0.944 -1.403,0.949 -0.184,0.149 -0.339,0.33 -0.459,0.534 l -0.448,-0.262 c 0.153,-0.265 0.354,-0.5 0.592,-0.693 0,0 0.656,-0.501 1.462,-0.987 0.805,-0.485 1.52,-0.816 1.546,-0.832 0.635,-0.253 1.344,-0.253 1.979,0 0.032,0 0.741,0.347 1.547,0.832 0.805,0.486 1.408,0.966 1.456,0.987 0.531,0.454 0.88,1.085 0.981,1.776 0,0.032 0.085,0.848 0.085,1.813 0,0.966 -0.08,1.782 -0.085,1.814 -0.101,0.691 -0.45,1.322 -0.981,1.776 0,0 -0.656,0.501 -1.462,0.986 -0.805,0.486 -1.52,0.816 -1.546,0.832 -0.314,0.133 -0.652,0.199 -0.992,0.192 z"
     id="path5145"
     inkscape:connector-curvature="0"
     style="fill:#ffffff" />
  <path
     d="m 218.376,218.804 h 2.134 v 0.533 h -1.6 v 2.667 h -0.534 z"
     id="path5147"
     inkscape:connector-curvature="0"
     style="fill:#ffffff" />
  <path
     d="m 222.643,219.337 c 0.211,0 0.417,0.063 0.593,0.18 0.175,0.117 0.312,0.284 0.393,0.479 0.08,0.194 0.102,0.409 0.06,0.616 -0.041,0.207 -0.142,0.397 -0.292,0.546 -0.149,0.149 -0.339,0.251 -0.546,0.292 -0.207,0.041 -0.421,0.02 -0.616,-0.061 -0.195,-0.081 -0.361,-0.217 -0.479,-0.393 -0.117,-0.175 -0.179,-0.381 -0.179,-0.592 0,-0.283 0.112,-0.554 0.312,-0.755 0.2,-0.2 0.471,-0.312 0.754,-0.312 z m 0,-0.533 c -0.316,0 -0.626,0.094 -0.889,0.269 -0.263,0.176 -0.468,0.426 -0.589,0.718 -0.121,0.293 -0.153,0.614 -0.091,0.925 0.062,0.31 0.214,0.595 0.438,0.819 0.224,0.224 0.509,0.376 0.819,0.438 0.31,0.062 0.632,0.03 0.925,-0.091 0.292,-0.121 0.542,-0.326 0.718,-0.589 0.175,-0.263 0.269,-0.573 0.269,-0.889 0,-0.425 -0.168,-0.832 -0.468,-1.132 -0.3,-0.3 -0.707,-0.468 -1.132,-0.468 z"
     id="path5149"
     inkscape:connector-curvature="0"
     style="fill:#ffffff" />
  <path
     d="m 226.376,222.004 c -0.253,-0.001 -0.503,-0.062 -0.729,-0.178 -0.225,-0.116 -0.42,-0.284 -0.568,-0.491 -0.148,-0.206 -0.244,-0.445 -0.282,-0.696 -0.037,-0.25 -0.014,-0.507 0.067,-0.747 0.081,-0.241 0.218,-0.458 0.4,-0.635 0.182,-0.177 0.404,-0.308 0.646,-0.383 0.243,-0.074 0.5,-0.09 0.749,-0.046 0.25,0.045 0.486,0.148 0.688,0.301 l -0.325,0.421 c -0.186,-0.139 -0.413,-0.214 -0.646,-0.213 -0.171,0 -0.34,0.042 -0.492,0.121 -0.152,0.079 -0.283,0.194 -0.381,0.335 -0.098,0.14 -0.161,0.303 -0.183,0.473 -0.022,0.17 -0.003,0.343 0.056,0.504 0.058,0.161 0.155,0.305 0.282,0.421 0.127,0.116 0.279,0.199 0.445,0.243 0.166,0.045 0.34,0.048 0.507,0.011 0.167,-0.038 0.323,-0.115 0.454,-0.225 l 0.342,0.41 c -0.289,0.242 -0.653,0.374 -1.03,0.374 z"
     id="path5151"
     inkscape:connector-curvature="0"
     style="fill:#ffffff" />
  <rect
     x="192"
     y="184.403"
     width="16"
     height="16"
     rx="2"
     id="rect5153"
     style="fill:#3377c9" />
  <path
     d="m 203.359,189.044 c -1.04,-1.04 -2.733,-1.04 -3.773,0 -0.711,0.711 -0.958,1.758 -0.65,2.708 l -3.005,3.005 c -0.045,0.045 -0.071,0.107 -0.071,0.171 v 1.373 c 0,0.134 0.109,0.242 0.243,0.242 h 1.372 c 0.064,0 0.126,-0.025 0.171,-0.071 l 0.343,-0.343 c 0.053,-0.053 0.078,-0.126 0.07,-0.2 l -0.043,-0.368 0.511,-0.048 c 0.116,-0.011 0.208,-0.103 0.218,-0.219 l 0.049,-0.511 0.368,0.043 c 0.069,0.009 0.138,-0.014 0.189,-0.06 0.052,-0.046 0.082,-0.112 0.082,-0.181 v -0.451 h 0.443 c 0.065,0 0.126,-0.026 0.172,-0.071 l 0.622,-0.614 c 0.949,0.308 1.979,0.079 2.689,-0.632 1.041,-1.04 1.041,-2.733 0,-3.773 z m -0.686,1.715 c -0.284,0.284 -0.745,0.284 -1.029,0 -0.284,-0.284 -0.284,-0.745 0,-1.029 0.284,-0.284 0.745,-0.284 1.029,0 0.284,0.284 0.284,0.745 0,1.029 z"
     id="path5155"
     inkscape:connector-curvature="0"
     style="fill:#ffffff" />
  <rect
     x="192"
     y="212.403"
     width="16"
     height="16"
     rx="2"
     id="rect5157"
     style="fill:#0055bb" />
  <path
     d="m 203.359,217.044 c -1.04,-1.04 -2.733,-1.04 -3.773,0 -0.711,0.711 -0.958,1.758 -0.65,2.708 l -3.005,3.005 c -0.045,0.045 -0.071,0.107 -0.071,0.171 v 1.373 c 0,0.134 0.109,0.242 0.243,0.242 h 1.372 c 0.064,0 0.126,-0.025 0.171,-0.071 l 0.343,-0.343 c 0.053,-0.053 0.078,-0.126 0.07,-0.2 l -0.043,-0.368 0.511,-0.048 c 0.116,-0.011 0.208,-0.103 0.218,-0.219 l 0.049,-0.511 0.368,0.043 c 0.069,0.009 0.138,-0.014 0.189,-0.06 0.052,-0.046 0.082,-0.112 0.082,-0.181 v -0.451 h 0.443 c 0.065,0 0.126,-0.026 0.172,-0.071 l 0.622,-0.614 c 0.949,0.308 1.979,0.079 2.689,-0.632 1.041,-1.04 1.041,-2.733 0,-3.773 z m -0.686,1.715 c -0.284,0.284 -0.745,0.284 -1.029,0 -0.284,-0.284 -0.284,-0.745 0,-1.029 0.284,-0.284 0.745,-0.284 1.029,0 0.284,0.284 0.284,0.745 0,1.029 z"
     id="path5159"
     inkscape:connector-curvature="0"
     style="fill:#ffffff" />
  <rect
     style="fill:#f0f5fb;stroke:none;stroke-opacity:1"
     x="440"
     y="0"
     width="32"
     height="32"
     rx="2"
     id="rect4879-5" />
  <g
     transform="translate(367.43096,2.1986959)"
     id="g6089">
    <path
       class="cls-1"
       d="m 95.11,8.09 4.62,-1.73 h 0.05 V 6.41 L 95.37,14 Z"
       id="path5223"
       inkscape:connector-curvature="0"
       style="fill:#4d95d1" />
    <path
       class="cls-1"
       d="M 87.18,19.79 78,5 V 4.94 h 0.05 l 5.72,3 4.83,10.12 z"
       id="path5225"
       inkscape:connector-curvature="0"
       style="fill:#4d95d1" />
    <path
       class="cls-2"
       d="M 87.18,19.79 78,5 V 4.94 h 0.05 l 5.72,3 4.83,10.12 z"
       id="path5227"
       inkscape:connector-curvature="0" />
    <path
       class="cls-1"
       d="M 80.1,27.72 95.89,14 95.16,8.09 80,27.66 c -0.05,0 -0.05,0.05 0.05,0.05 v 0 z"
       id="path5229"
       inkscape:connector-curvature="0"
       style="fill:#4d95d1" />
    <path
       class="cls-3"
       d="M 79.84,0.32 88.08,20.73 95.84,14 79.84,0.36 c 0.05,-0.05 0,-0.05 0,0 v 0 z"
       id="path5231"
       inkscape:connector-curvature="0" />
    <path
       style="fill:#4d95d1;fill-opacity:1"
       class="cls-4"
       d="M 79.84,0.32 88.08,20.73 95.84,14 79.84,0.36 c 0.05,-0.05 0,-0.05 0,0 v 0 z"
       id="path5233"
       inkscape:connector-curvature="0" />
    <polygon
       class="cls-5"
       points="95.84,13.97 95.11,8.04 92.64,11.24 "
       id="polygon5235" />
    <path
       class="cls-6"
       d="m 80.1,27.72 8,-7 -0.94,-2.36 -7.16,9.25 v 0.1 h 0.1 z"
       id="path5237"
       inkscape:connector-curvature="0" />
    <path
       class="cls-7"
       d="m 95.11,8.09 0.63,5.14 4,-6.82 V 6.36 h -0.07 z"
       id="path5239"
       inkscape:connector-curvature="0" />
  </g>
  <rect
     style="fill:none;stroke:#4d95d1;stroke-opacity:1"
     x="440.5"
     y="0.5"
     width="31"
     height="31"
     rx="2"
     id="rect4879-5-9" />
</svg>
