<svg xmlns="http://www.w3.org/2000/svg" width="839" height="402" viewBox="-7 -7 839 402"><defs><marker viewBox="0 0 20 20" markerWidth="10" markerHeight="10" orient="auto" refX="11" refY="10" id="markerSiv45lsgz9"><path d="M1 5l10 5-10 5z" stroke-linecap="round" stroke-dasharray="10000,1"/></marker><marker viewBox="0 0 20 20" markerWidth="20" markerHeight="20" orient="auto" refX="6" refY="6" id="markerSiv45lsgzb"><circle cx="6" cy="6" r="3.5" fill="#fff" stroke="#000" stroke-linecap="round" stroke-dasharray="10000,1"/></marker><marker viewBox="0 0 20 20" markerWidth="20" markerHeight="20" orient="auto" refX="8.5" refY="5" id="markerSiv45lsgzd"><path d="M1 5V2l7 3-7 3z" fill="#fff" stroke="#000" stroke-dasharray="10000,1"/></marker><marker viewBox="0 0 20 20" markerWidth="10" markerHeight="10" orient="auto" refX="1" refY="10" id="markerSiv45lsgzf"><path d="M11 5L1 10l10 5" fill="none" stroke="#000" stroke-width="1.5" stroke-linecap="round" stroke-dasharray="10000,1"/></marker><marker viewBox="0 0 20 20" markerWidth="10" markerHeight="10" orient="auto" refX="12" refY="10" id="markerSiv45lsgzh"><path d="M1 5l10 5-10 5" fill="none" stroke="#000" stroke-width="1.5" stroke-linecap="round" stroke-dasharray="10000,1"/></marker><marker viewBox="0 0 20 20" markerWidth="10" markerHeight="10" orient="auto" refX="-1" refY="10" id="markerSiv45lsgzj"><path d="M0 10l8-4 8 4-8 4z" fill="#fff" stroke="#000" stroke-linecap="round" stroke-dasharray="10000,1"/></marker><marker viewBox="0 0 20 20" markerWidth="10" markerHeight="10" orient="auto" refX="-5" refY="10" id="markerSiv45lsgzl"><path d="M1 4l4 12" stroke="#000" stroke-linecap="round" stroke-dasharray="10000,1"/></marker></defs><g class="djs-group" xmlns="http://www.w3.org/2000/svg"><g data-element-id="Participant_10m2qft" class="djs-element djs-shape" display="block"><g class="djs-visual" transform="translate(-1 -1)"><rect width="827" height="390" rx="0" ry="0" stroke="#000" fill="#fff" stroke-width="2" fill-opacity=".95"/><path fill="none" stroke="#000" stroke-width="2" d="M30 0v390"/><text class="djs-label" transform="rotate(-90 195 195)" font-family="Arial,sans-serif" font-size="12"><tspan x="103.406" y="18.5">Workflow Atendimento Call Center</tspan></text></g><path fill="none" class="djs-hit" d="M-1-1h827v390H-1z"/><path fill="none" class="djs-outline" d="M-7-7h839v402H-7z"/></g><g class="djs-children"><g data-element-id="Lane_025zrl8" class="djs-group djs-element djs-shape" display="block"><g class="djs-visual" transform="translate(29 -1)"><rect width="797" height="137" rx="0" ry="0" stroke="#000" fill="none" stroke-width="2"/><text class="djs-label" transform="rotate(-90 68.5 68.5)" font-family="Arial,sans-serif" font-size="12"><tspan x="9.469" y="18.5">Atendente Call Center</tspan></text></g><path fill="none" class="djs-hit" d="M29-1h797v137H29z"/><path fill="none" class="djs-outline" d="M23-7h809v149H23z"/></g><g data-element-id="Lane_1n60xwh" class="djs-group djs-element djs-shape" display="block"><g class="djs-visual" transform="translate(29 136)"><rect width="797" height="118" rx="0" ry="0" stroke="#000" fill="none" stroke-width="2"/><text class="djs-label" transform="rotate(-90 59 59)" font-family="Arial,sans-serif" font-size="12"><tspan x="25.313" y="18.5">Atendimento</tspan></text></g><path fill="none" class="djs-hit" d="M29 136h797v118H29z"/><path fill="none" class="djs-outline" d="M23 130h809v130H23z"/></g><g data-element-id="Lane_1t1fgxp" class="djs-group djs-element djs-shape" display="block"><g class="djs-visual" transform="translate(29 254)"><rect width="797" height="135" rx="0" ry="0" stroke="#000" fill="none" stroke-width="2"/><text class="djs-label" transform="rotate(-90 67.5 67.5)" font-family="Arial,sans-serif" font-size="12"><tspan x="39.82" y="18.5">Aprovador</tspan></text></g><path fill="none" class="djs-hit" d="M29 254h797v135H29z"/><path fill="none" class="djs-outline" d="M23 248h809v147H23z"/></g><g data-element-id="Task_0zhhb0d" class="djs-group djs-element djs-shape" display="block"><g class="djs-visual" transform="translate(148 32)"><rect width="100" height="80" rx="10" ry="10" stroke="#000" fill="#fff" stroke-width="2"/><text class="djs-label" font-family="Arial,sans-serif" font-size="12"><tspan x="21.32" y="36.5">Inicia novo </tspan> <tspan x="16.977" y="50.5">atendimento </tspan></text></g><path fill="none" class="djs-hit" d="M148 32h100v80H148z"/><path fill="none" class="djs-outline" d="M142 26h112v92H142z"/></g><g data-element-id="StartEvent_1" class="djs-group djs-element djs-shape" display="block"><g class="djs-visual" transform="translate(76 54)"><circle id="inicio" cx="18" cy="18" r="18" stroke="#000" fill="#fff" stroke-width="2"/></g><path fill="none" class="djs-hit" d="M76 54h36v36H76z"/><path fill="none" class="djs-outline" d="M70 48h48v48H70z"/></g><g data-element-id="IntermediateThrowEvent_0h79x09" class="djs-group djs-element djs-shape" display="block"><g class="djs-visual" transform="translate(290 54)"><circle cx="18" cy="18" r="18" stroke="#000" fill="#fff"/><circle cx="18" cy="18" r="15" stroke="#000" fill="none"/><path d="M8.46 11.34v12.6h18.9v-12.6zl9.45 5.4 9.45-5.4" stroke="#fff"/></g><path fill="none" class="djs-hit" d="M290 54h36v36h-36z"/><path fill="none" class="djs-outline" d="M284 48h48v48h-48z"/></g><g data-element-id="ExclusiveGateway_1mj33eq_label" class="djs-group djs-element djs-shape" display="block"><text class="djs-visual djs-label" font-family="Arial,sans-serif" font-size="11" transform="translate(490 270)"><tspan x="14.125" y="12">Atendimento </tspan> <tspan x="19.008" y="24.281">aprovado? </tspan></text><path fill="none" class="djs-hit" d="M490 270h90v20h-90z"/><path fill="none" class="djs-outline" d="M484 264h102v32H484z"/></g><g data-element-id="UserTask_0u65dsa" class="djs-group djs-element djs-shape" display="block"><g class="djs-visual" transform="translate(258 155)"><rect id="atendimento" width="100" height="80" rx="10" ry="10" stroke="#000" fill="#fff" stroke-width="2"/><text class="djs-label" font-family="Arial,sans-serif" font-size="12"><tspan x="28.32" y="36.5">Executa </tspan> <tspan x="16.977" y="50.5">atendimento </tspan></text><path d="M50 73c3.527 0 6.386-2.83 6.386-6.32 0-3.491-2.859-6.321-6.386-6.321s-6.386 2.83-6.386 6.32c0 1.746.715 3.326 1.87 4.47a6.4 6.4 0 0 0 2.03 1.354l-.718-3.91m.718 3.91l-3.885.803" fill="none" stroke="#000" data-marker="loop" stroke-linecap="round" stroke-miterlimit=".5"/><path d="M15 12c.909-.845 1.594-2.049 1.594-3.385 0-2.554-1.805-4.622-4.357-4.622-2.552 0-4.288 2.068-4.288 4.622 0 1.348.974 2.562 1.896 3.405-.529.187-5.669 2.097-5.794 4.756v6.718h17v-6.718c0-2.298-5.528-4.595-6.051-4.776zm-8 6v5.5m11 0v-5" fill="none" stroke="#000" stroke-width=".5"/><path d="M17.162 13.009c0 2.447-2.158 4.431-4.821 4.431-2.665 0-4.822-1.981-4.822-4.431" fill="none" stroke="#000" stroke-width=".5"/><path d="M8.1 8.2s2.251-2.358 4.274-1.177c2.024 1.181 4.221 1.537 4.124.965-.098-.57-.117-3.791-4.191-4.136C8.732 3.853 8.099 7.219 8.1 8.2z" stroke="#000" stroke-width=".5"/></g><path fill="none" class="djs-hit" d="M258 155h100v80H258z"/><path fill="none" class="djs-outline" d="M252 149h112v92H252z"/></g><g data-element-id="IntermediateThrowEvent_0009ng9" class="djs-group djs-element djs-shape" display="block"><g class="djs-visual" transform="translate(398 177)"><circle cx="18" cy="18" r="18" stroke="#000" fill="#fff"/><circle cx="18" cy="18" r="15" stroke="#000" fill="none"/><path d="M8.46 11.34v12.6h18.9v-12.6zl9.45 5.4 9.45-5.4" stroke="#fff"/></g><path fill="none" class="djs-hit" d="M398 177h36v36h-36z"/><path fill="none" class="djs-outline" d="M392 171h48v48h-48z"/></g><g data-element-id="Task_188nk0i" class="djs-group djs-element djs-shape" display="block"><g class="djs-visual" transform="translate(366 289)"><rect width="100" height="80" rx="10" ry="10" stroke="#000" fill="#fff" stroke-width="2"/><text id="aprovacao" class="djs-label" font-family="Arial,sans-serif" font-size="12"><tspan x="22.32" y="22.5">Aprovador </tspan> <tspan x="6.633" y="36.5">aprova ou não o </tspan> <tspan x="12.984" y="50.5">encerramento </tspan> <tspan x="13.648" y="64.5">da solicitação </tspan></text></g><path fill="none" class="djs-hit" d="M366 289h100v80H366z"/><path fill="none" class="djs-outline" d="M360 283h112v92H360z"/></g><g data-element-id="TextAnnotation_0zwa7jd" class="djs-group djs-element djs-shape" display="block"><g class="djs-visual" transform="translate(346 51)"><rect width="184" height="42" rx="0" ry="0" fill="none"/><path d="M10 0H0v42h10" fill="none" stroke="#000" stroke-width="2"/><text class="djs-label" font-family="Arial,sans-serif" font-size="12"><tspan x="5" y="17.5">Comunica ao setor responsável</tspan> <tspan x="5" y="31.5">que há atendimento pendente </tspan></text></g><path fill="none" class="djs-hit" d="M346 51h184v42H346z"/><path fill="none" class="djs-outline" d="M340 45h196v54H340z"/></g><g data-element-id="TextAnnotation_0yqd4hr" class="djs-group djs-element djs-shape" display="block"><g class="djs-visual" transform="translate(455 174)"><rect width="159" height="42" rx="0" ry="0" fill="none"/><path d="M10 0H0v42h10" fill="none" stroke="#000" stroke-width="2"/><text class="djs-label" font-family="Arial,sans-serif" font-size="12"><tspan x="5" y="17.5">Comunica a solicitação de </tspan> <tspan x="5" y="31.5">aprovação ao responsável </tspan></text></g><path fill="none" class="djs-hit" d="M455 174h159v42H455z"/><path fill="none" class="djs-outline" d="M449 168h171v54H449z"/></g><g data-element-id="IntermediateThrowEvent_03rilf4" class="djs-group djs-element djs-shape" display="block"><g class="djs-visual" transform="translate(610 311)"><circle cx="18" cy="18" r="18" stroke="#000" fill="#fff"/><circle cx="18" cy="18" r="15" stroke="#000" fill="none"/><path d="M8.46 11.34v12.6h18.9v-12.6zl9.45 5.4 9.45-5.4" stroke="#fff"/></g><path fill="none" class="djs-hit" d="M610 311h36v36h-36z"/><path fill="none" class="djs-outline" d="M604 305h48v48h-48z"/></g><g data-element-id="ExclusiveGateway_1mj33eq" class="djs-group djs-element djs-shape" display="block"><g class="djs-visual" stroke="#000"><path fill="#fff" stroke-width="2" d="M535 304l25 25-25 25-25-25z"/><path d="M526 319l7.429 9.714L526 338.43h3.429l5.714-7.465 5.714 7.465h3.429l-7.429-9.715 7.429-9.714h-3.429l-5.714 7.464-5.714-7.464H526z"/></g><path fill="none" class="djs-hit" d="M510 304h50v50h-50z"/><path fill="none" class="djs-outline" d="M504 298h62v62h-62z"/></g><g data-element-id="TextAnnotation_1q10yb2" class="djs-group djs-element djs-shape" display="block"><g class="djs-visual" transform="translate(641 175)"><rect width="164" height="40" rx="0" ry="0" fill="none"/><path d="M10 0H0v40h10" fill="none" stroke="#000" stroke-width="2"/><text class="djs-label" font-family="Arial,sans-serif" font-size="12"><tspan x="5" y="16.5">Comunica encerramento do </tspan> <tspan x="5" y="30.5">atendimento ao solicitante </tspan></text></g><path fill="none" class="djs-hit" d="M641 175h164v40H641z"/><path fill="none" class="djs-outline" d="M635 169h176v52H635z"/></g><g data-element-id="EndEvent_106icis" class="djs-group djs-element djs-shape" display="block"><g class="djs-visual" transform="translate(705 311)"><circle id="fim" cx="18" cy="18" r="18" stroke="#000" fill="#fff" stroke-width="4"/></g><path fill="none" class="djs-hit" d="M705 311h36v36h-36z"/><path fill="none" class="djs-outline" d="M699 305h48v48h-48z"/></g><g data-element-id="SequenceFlow_08lot51" class="djs-group djs-element djs-connection" display="block"><path d="M112 72h36" fill="none" stroke="#000" stroke-width="2" stroke-linejoin="round" marker-end="url(#markerSiv45lsgz9)" class="djs-visual"/><path fill="none" class="djs-hit" d="M112 72h36"/><path fill="none" class="djs-outline" d="M106 66h48v12h-48z"/></g><g data-element-id="SequenceFlow_07oodt1" class="djs-group djs-element djs-connection" display="block"><path d="M248 72h42" fill="none" stroke="#000" stroke-width="2" stroke-linejoin="round" marker-end="url(#markerSiv45lsgz9)" class="djs-visual"/><path fill="none" class="djs-hit" d="M248 72h42"/><path fill="none" class="djs-outline" d="M242 66h54v12h-54z"/></g><g data-element-id="SequenceFlow_1iy8ebk" class="djs-group djs-element djs-connection" display="block"><path d="M308 90v65" fill="none" stroke="#000" stroke-width="2" stroke-linejoin="round" marker-end="url(#markerSiv45lsgz9)" class="djs-visual"/><path fill="none" class="djs-hit" d="M308 90v65"/><path fill="none" class="djs-outline" d="M302 84h12v77h-12z"/></g><g data-element-id="SequenceFlow_1exncfs" class="djs-group djs-element djs-connection" display="block"><path d="M416 213v76" fill="none" stroke="#000" stroke-width="2" stroke-linejoin="round" marker-end="url(#markerSiv45lsgz9)" class="djs-visual"/><path fill="none" class="djs-hit" d="M416 213v76"/><path fill="none" class="djs-outline" d="M410 207h12v88h-12z"/></g><g data-element-id="SequenceFlow_1eskwdo" class="djs-group djs-element djs-connection" display="block"><path d="M358 195h40" fill="none" stroke="#000" stroke-width="2" stroke-linejoin="round" marker-end="url(#markerSiv45lsgz9)" class="djs-visual"/><path fill="none" class="djs-hit" d="M358 195h40"/><path fill="none" class="djs-outline" d="M352 189h52v12h-52z"/></g><g data-element-id="SequenceFlow_02pim97" class="djs-group djs-element djs-connection" display="block"><path d="M466 329h44" fill="none" stroke="#000" stroke-width="2" stroke-linejoin="round" marker-end="url(#markerSiv45lsgz9)" class="djs-visual"/><path fill="none" class="djs-hit" d="M466 329h44"/><path fill="none" class="djs-outline" d="M460 323h56v12h-56z"/></g><g data-element-id="SequenceFlow_0o50po8" class="djs-group djs-element djs-connection" display="block"><path d="M560 329h50" fill="none" stroke="#000" stroke-width="2" stroke-linejoin="round" marker-end="url(#markerSiv45lsgz9)" class="djs-visual"/><path fill="none" class="djs-hit" d="M560 329h50"/><path fill="none" class="djs-outline" d="M554 323h62v12h-62z"/></g><g data-element-id="SequenceFlow_0o50po8_label" class="djs-group djs-element djs-shape" display="block"><text class="djs-visual djs-label" font-family="Arial,sans-serif" font-size="11" transform="translate(533 307)"><tspan x="35.531" y="12">Sim</tspan></text><path fill="none" class="djs-hit" d="M533 307h90v20h-90z"/><path fill="none" class="djs-outline" d="M527 301h102v32H527z"/></g><g data-element-id="SequenceFlow_1kx97cv_label" class="djs-group djs-element djs-shape" display="block"><text class="djs-visual djs-label" font-family="Arial,sans-serif" font-size="11" transform="translate(533 342)"><tspan x="34.914" y="12">Não</tspan></text><path fill="none" class="djs-hit" d="M533 342h90v20h-90z"/><path fill="none" class="djs-outline" d="M527 336h102v32H527z"/></g><g data-element-id="Association_0jc50d6" class="djs-group djs-element djs-connection" display="block"><path fill="none" stroke="#000" stroke-width="2" stroke-dasharray=".5,5" stroke-linecap="round" stroke-linejoin="round" d="M326 72h20" class="djs-visual"/><path fill="none" class="djs-hit" d="M326 72h20"/><path fill="none" class="djs-outline" d="M320 66h32v12h-32z"/></g><g data-element-id="SequenceFlow_1kx97cv" class="djs-group djs-element djs-connection" display="block"><path d="M535 354v12h274V20H308v34" fill="none" stroke="#000" stroke-width="2" stroke-linejoin="round" marker-end="url(#markerSiv45lsgz9)" class="djs-visual"/><path fill="none" class="djs-hit" d="M535 354v12h274V20H308v34"/><path fill="none" class="djs-outline" d="M302 14h513v358H302z"/></g><g data-element-id="Association_1qbu3fl" class="djs-group djs-element djs-connection" display="block"><path fill="none" stroke="#000" stroke-width="2" stroke-dasharray=".5,5" stroke-linecap="round" stroke-linejoin="round" d="M434 195h21" class="djs-visual"/><path fill="none" class="djs-hit" d="M434 195h21"/><path fill="none" class="djs-outline" d="M428 189h33v12h-33z"/></g><g data-element-id="Association_1je3yv2" class="djs-group djs-element djs-connection" display="block"><path fill="none" stroke="#000" stroke-width="2" stroke-dasharray=".5,5" stroke-linecap="round" stroke-linejoin="round" d="M628 311V195h13" class="djs-visual"/><path fill="none" class="djs-hit" d="M628 311V195h13"/><path fill="none" class="djs-outline" d="M622 189h25v128h-25z"/></g><g data-element-id="SequenceFlow_0gsj3jn" class="djs-group djs-element djs-connection" display="block"><path d="M646 329h59" fill="none" stroke="#000" stroke-width="2" stroke-linejoin="round" marker-end="url(#markerSiv45lsgz9)" class="djs-visual"/><path fill="none" class="djs-hit" d="M646 329h59"/><path fill="none" class="djs-outline" d="M640 323h71v12h-71z"/></g></g></g></svg>